<svg width="244" height="89" viewBox="0 0 244 89" fill="none" xmlns="http://www.w3.org/2000/svg">
<g clip-path="url(#clip0_86_14)">
<path d="M0 1.81C0 2.81 0.81 3.62 1.81 3.62C2.81 3.62 3.62 2.81 3.62 1.81C3.62 0.81 2.81 0 1.81 0C0.81 0 0 0.81 0 1.81Z" fill="#929493"/>
<path d="M19.96 1.81C19.96 2.81 20.77 3.62 21.77 3.62C22.77 3.62 23.58 2.81 23.58 1.81C23.58 0.81 22.77 0 21.77 0C20.77 0 19.96 0.81 19.96 1.81Z" fill="#929493"/>
<path d="M39.92 1.81C39.92 2.81 40.73 3.62 41.73 3.62C42.73 3.62 43.54 2.81 43.54 1.81C43.54 0.81 42.73 0 41.73 0C40.73 0 39.92 0.81 39.92 1.81Z" fill="#929493"/>
<path d="M59.88 1.81C59.88 2.81 60.69 3.62 61.69 3.62C62.69 3.62 63.5 2.81 63.5 1.81C63.5 0.81 62.69 0 61.69 0C60.69 0 59.88 0.81 59.88 1.81Z" fill="#929493"/>
<path d="M79.84 1.81C79.84 2.81 80.65 3.62 81.65 3.62C82.65 3.62 83.46 2.81 83.46 1.81C83.46 0.81 82.65 0 81.65 0C80.65 0 79.84 0.81 79.84 1.81Z" fill="#929493"/>
<path d="M99.8 1.81C99.8 2.81 100.61 3.62 101.61 3.62C102.61 3.62 103.42 2.81 103.42 1.81C103.42 0.81 102.61 0 101.61 0C100.61 0 99.8 0.81 99.8 1.81Z" fill="#929493"/>
<path d="M119.76 1.81C119.76 2.81 120.57 3.62 121.57 3.62C122.57 3.62 123.38 2.81 123.38 1.81C123.38 0.81 122.57 0 121.57 0C120.57 0 119.76 0.81 119.76 1.81Z" fill="#929493"/>
<path d="M139.72 1.81C139.72 2.81 140.53 3.62 141.53 3.62C142.53 3.62 143.34 2.81 143.34 1.81C143.34 0.81 142.53 0 141.53 0C140.53 0 139.72 0.81 139.72 1.81Z" fill="#929493"/>
<path d="M159.68 1.81C159.68 2.81 160.49 3.62 161.49 3.62C162.49 3.62 163.3 2.81 163.3 1.81C163.3 0.81 162.49 0 161.49 0C160.49 0 159.68 0.81 159.68 1.81Z" fill="#929493"/>
<path d="M179.64 1.81C179.64 2.81 180.45 3.62 181.45 3.62C182.45 3.62 183.26 2.81 183.26 1.81C183.26 0.81 182.45 0 181.45 0C180.45 0 179.64 0.81 179.64 1.81Z" fill="#929493"/>
<path d="M199.6 1.81C199.6 2.81 200.41 3.62 201.41 3.62C202.41 3.62 203.22 2.81 203.22 1.81C203.22 0.81 202.41 0 201.41 0C200.41 0 199.6 0.81 199.6 1.81Z" fill="#929493"/>
<path d="M219.56 1.81C219.56 2.81 220.37 3.62 221.37 3.62C222.37 3.62 223.18 2.81 223.18 1.81C223.18 0.81 222.37 0 221.37 0C220.37 0 219.56 0.81 219.56 1.81Z" fill="#929493"/>
<path d="M239.52 1.81C239.52 2.81 240.33 3.62 241.33 3.62C242.33 3.62 243.14 2.81 243.14 1.81C243.14 0.81 242.33 0 241.33 0C240.33 0 239.52 0.81 239.52 1.81Z" fill="#929493"/>
<path d="M0 17.43C0 18.43 0.81 19.24 1.81 19.24C2.81 19.24 3.62 18.43 3.62 17.43C3.62 16.43 2.81 15.62 1.81 15.62C0.81 15.62 0 16.43 0 17.43Z" fill="#929493"/>
<path d="M19.96 17.43C19.96 18.43 20.77 19.24 21.77 19.24C22.77 19.24 23.58 18.43 23.58 17.43C23.58 16.43 22.77 15.62 21.77 15.62C20.77 15.62 19.96 16.43 19.96 17.43Z" fill="#929493"/>
<path d="M39.92 17.43C39.92 18.43 40.73 19.24 41.73 19.24C42.73 19.24 43.54 18.43 43.54 17.43C43.54 16.43 42.73 15.62 41.73 15.62C40.73 15.62 39.92 16.43 39.92 17.43Z" fill="#929493"/>
<path d="M59.88 17.43C59.88 18.43 60.69 19.24 61.69 19.24C62.69 19.24 63.5 18.43 63.5 17.43C63.5 16.43 62.69 15.62 61.69 15.62C60.69 15.62 59.88 16.43 59.88 17.43Z" fill="#929493"/>
<path d="M79.84 17.43C79.84 18.43 80.65 19.24 81.65 19.24C82.65 19.24 83.46 18.43 83.46 17.43C83.46 16.43 82.65 15.62 81.65 15.62C80.65 15.62 79.84 16.43 79.84 17.43Z" fill="#929493"/>
<path d="M99.8 17.43C99.8 18.43 100.61 19.24 101.61 19.24C102.61 19.24 103.42 18.43 103.42 17.43C103.42 16.43 102.61 15.62 101.61 15.62C100.61 15.62 99.8 16.43 99.8 17.43Z" fill="#929493"/>
<path d="M119.76 17.43C119.76 18.43 120.57 19.24 121.57 19.24C122.57 19.24 123.38 18.43 123.38 17.43C123.38 16.43 122.57 15.62 121.57 15.62C120.57 15.62 119.76 16.43 119.76 17.43Z" fill="#929493"/>
<path d="M139.72 17.43C139.72 18.43 140.53 19.24 141.53 19.24C142.53 19.24 143.34 18.43 143.34 17.43C143.34 16.43 142.53 15.62 141.53 15.62C140.53 15.62 139.72 16.43 139.72 17.43Z" fill="#929493"/>
<path d="M159.68 17.43C159.68 18.43 160.49 19.24 161.49 19.24C162.49 19.24 163.3 18.43 163.3 17.43C163.3 16.43 162.49 15.62 161.49 15.62C160.49 15.62 159.68 16.43 159.68 17.43Z" fill="#929493"/>
<path d="M179.64 17.43C179.64 18.43 180.45 19.24 181.45 19.24C182.45 19.24 183.26 18.43 183.26 17.43C183.26 16.43 182.45 15.62 181.45 15.62C180.45 15.62 179.64 16.43 179.64 17.43Z" fill="#929493"/>
<path d="M199.6 17.43C199.6 18.43 200.41 19.24 201.41 19.24C202.41 19.24 203.22 18.43 203.22 17.43C203.22 16.43 202.41 15.62 201.41 15.62C200.41 15.62 199.6 16.43 199.6 17.43Z" fill="#929493"/>
<path d="M219.56 17.43C219.56 18.43 220.37 19.24 221.37 19.24C222.37 19.24 223.18 18.43 223.18 17.43C223.18 16.43 222.37 15.62 221.37 15.62C220.37 15.62 219.56 16.43 219.56 17.43Z" fill="#929493"/>
<path d="M239.52 17.43C239.52 18.43 240.33 19.24 241.33 19.24C242.33 19.24 243.14 18.43 243.14 17.43C243.14 16.43 242.33 15.62 241.33 15.62C240.33 15.62 239.52 16.43 239.52 17.43Z" fill="#929493"/>
<path d="M0 33.05C0 34.05 0.81 34.86 1.81 34.86C2.81 34.86 3.62 34.05 3.62 33.05C3.62 32.05 2.81 31.24 1.81 31.24C0.81 31.24 0 32.05 0 33.05Z" fill="#929493"/>
<path d="M19.96 33.05C19.96 34.05 20.77 34.86 21.77 34.86C22.77 34.86 23.58 34.05 23.58 33.05C23.58 32.05 22.77 31.24 21.77 31.24C20.77 31.24 19.96 32.05 19.96 33.05Z" fill="#929493"/>
<path d="M39.92 33.05C39.92 34.05 40.73 34.86 41.73 34.86C42.73 34.86 43.54 34.05 43.54 33.05C43.54 32.05 42.73 31.24 41.73 31.24C40.73 31.24 39.92 32.05 39.92 33.05Z" fill="#929493"/>
<path d="M59.88 33.05C59.88 34.05 60.69 34.86 61.69 34.86C62.69 34.86 63.5 34.05 63.5 33.05C63.5 32.05 62.69 31.24 61.69 31.24C60.69 31.24 59.88 32.05 59.88 33.05Z" fill="#929493"/>
<path d="M79.84 33.05C79.84 34.05 80.65 34.86 81.65 34.86C82.65 34.86 83.46 34.05 83.46 33.05C83.46 32.05 82.65 31.24 81.65 31.24C80.65 31.24 79.84 32.05 79.84 33.05Z" fill="#929493"/>
<path d="M99.8 33.05C99.8 34.05 100.61 34.86 101.61 34.86C102.61 34.86 103.42 34.05 103.42 33.05C103.42 32.05 102.61 31.24 101.61 31.24C100.61 31.24 99.8 32.05 99.8 33.05Z" fill="#929493"/>
<path d="M119.76 33.05C119.76 34.05 120.57 34.86 121.57 34.86C122.57 34.86 123.38 34.05 123.38 33.05C123.38 32.05 122.57 31.24 121.57 31.24C120.57 31.24 119.76 32.05 119.76 33.05Z" fill="#929493"/>
<path d="M139.72 33.05C139.72 34.05 140.53 34.86 141.53 34.86C142.53 34.86 143.34 34.05 143.34 33.05C143.34 32.05 142.53 31.24 141.53 31.24C140.53 31.24 139.72 32.05 139.72 33.05Z" fill="#929493"/>
<path d="M159.68 33.05C159.68 34.05 160.49 34.86 161.49 34.86C162.49 34.86 163.3 34.05 163.3 33.05C163.3 32.05 162.49 31.24 161.49 31.24C160.49 31.24 159.68 32.05 159.68 33.05Z" fill="#929493"/>
<path d="M179.64 33.05C179.64 34.05 180.45 34.86 181.45 34.86C182.45 34.86 183.26 34.05 183.26 33.05C183.26 32.05 182.45 31.24 181.45 31.24C180.45 31.24 179.64 32.05 179.64 33.05Z" fill="#929493"/>
<path d="M199.6 33.05C199.6 34.05 200.41 34.86 201.41 34.86C202.41 34.86 203.22 34.05 203.22 33.05C203.22 32.05 202.41 31.24 201.41 31.24C200.41 31.24 199.6 32.05 199.6 33.05Z" fill="#929493"/>
<path d="M219.56 33.05C219.56 34.05 220.37 34.86 221.37 34.86C222.37 34.86 223.18 34.05 223.18 33.05C223.18 32.05 222.37 31.24 221.37 31.24C220.37 31.24 219.56 32.05 219.56 33.05Z" fill="#929493"/>
<path d="M239.52 33.05C239.52 34.05 240.33 34.86 241.33 34.86C242.33 34.86 243.14 34.05 243.14 33.05C243.14 32.05 242.33 31.24 241.33 31.24C240.33 31.24 239.52 32.05 239.52 33.05Z" fill="#929493"/>
<path d="M0 48.67C0 49.67 0.81 50.48 1.81 50.48C2.81 50.48 3.62 49.67 3.62 48.67C3.62 47.67 2.81 46.86 1.81 46.86C0.81 46.86 0 47.67 0 48.67Z" fill="#929493"/>
<path d="M19.96 48.67C19.96 49.67 20.77 50.48 21.77 50.48C22.77 50.48 23.58 49.67 23.58 48.67C23.58 47.67 22.77 46.86 21.77 46.86C20.77 46.86 19.96 47.67 19.96 48.67Z" fill="#929493"/>
<path d="M39.92 48.67C39.92 49.67 40.73 50.48 41.73 50.48C42.73 50.48 43.54 49.67 43.54 48.67C43.54 47.67 42.73 46.86 41.73 46.86C40.73 46.86 39.92 47.67 39.92 48.67Z" fill="#929493"/>
<path d="M59.88 48.67C59.88 49.67 60.69 50.48 61.69 50.48C62.69 50.48 63.5 49.67 63.5 48.67C63.5 47.67 62.69 46.86 61.69 46.86C60.69 46.86 59.88 47.67 59.88 48.67Z" fill="#929493"/>
<path d="M79.84 48.67C79.84 49.67 80.65 50.48 81.65 50.48C82.65 50.48 83.46 49.67 83.46 48.67C83.46 47.67 82.65 46.86 81.65 46.86C80.65 46.86 79.84 47.67 79.84 48.67Z" fill="#929493"/>
<path d="M99.8 48.67C99.8 49.67 100.61 50.48 101.61 50.48C102.61 50.48 103.42 49.67 103.42 48.67C103.42 47.67 102.61 46.86 101.61 46.86C100.61 46.86 99.8 47.67 99.8 48.67Z" fill="#929493"/>
<path d="M119.76 48.67C119.76 49.67 120.57 50.48 121.57 50.48C122.57 50.48 123.38 49.67 123.38 48.67C123.38 47.67 122.57 46.86 121.57 46.86C120.57 46.86 119.76 47.67 119.76 48.67Z" fill="#929493"/>
<path d="M139.72 48.67C139.72 49.67 140.53 50.48 141.53 50.48C142.53 50.48 143.34 49.67 143.34 48.67C143.34 47.67 142.53 46.86 141.53 46.86C140.53 46.86 139.72 47.67 139.72 48.67Z" fill="#929493"/>
<path d="M159.68 48.67C159.68 49.67 160.49 50.48 161.49 50.48C162.49 50.48 163.3 49.67 163.3 48.67C163.3 47.67 162.49 46.86 161.49 46.86C160.49 46.86 159.68 47.67 159.68 48.67Z" fill="#929493"/>
<path d="M179.64 48.67C179.64 49.67 180.45 50.48 181.45 50.48C182.45 50.48 183.26 49.67 183.26 48.67C183.26 47.67 182.45 46.86 181.45 46.86C180.45 46.86 179.64 47.67 179.64 48.67Z" fill="#929493"/>
<path d="M199.6 48.67C199.6 49.67 200.41 50.48 201.41 50.48C202.41 50.48 203.22 49.67 203.22 48.67C203.22 47.67 202.41 46.86 201.41 46.86C200.41 46.86 199.6 47.67 199.6 48.67Z" fill="#929493"/>
<path d="M219.56 48.67C219.56 49.67 220.37 50.48 221.37 50.48C222.37 50.48 223.18 49.67 223.18 48.67C223.18 47.67 222.37 46.86 221.37 46.86C220.37 46.86 219.56 47.67 219.56 48.67Z" fill="#929493"/>
<path d="M239.52 48.67C239.52 49.67 240.33 50.48 241.33 50.48C242.33 50.48 243.14 49.67 243.14 48.67C243.14 47.67 242.33 46.86 241.33 46.86C240.33 46.86 239.52 47.67 239.52 48.67Z" fill="#929493"/>
<path d="M0 64.29C0 65.29 0.81 66.1 1.81 66.1C2.81 66.1 3.62 65.29 3.62 64.29C3.62 63.29 2.81 62.48 1.81 62.48C0.81 62.48 0 63.29 0 64.29Z" fill="#929493"/>
<path d="M19.96 64.29C19.96 65.29 20.77 66.1 21.77 66.1C22.77 66.1 23.58 65.29 23.58 64.29C23.58 63.29 22.77 62.48 21.77 62.48C20.77 62.48 19.96 63.29 19.96 64.29Z" fill="#929493"/>
<path d="M39.92 64.29C39.92 65.29 40.73 66.1 41.73 66.1C42.73 66.1 43.54 65.29 43.54 64.29C43.54 63.29 42.73 62.48 41.73 62.48C40.73 62.48 39.92 63.29 39.92 64.29Z" fill="#929493"/>
<path d="M61.69 66.1C62.6896 66.1 63.5 65.2896 63.5 64.29C63.5 63.2904 62.6896 62.48 61.69 62.48C60.6904 62.48 59.88 63.2904 59.88 64.29C59.88 65.2896 60.6904 66.1 61.69 66.1Z" fill="#929493"/>
<path d="M81.65 66.1C82.6496 66.1 83.46 65.2896 83.46 64.29C83.46 63.2904 82.6496 62.48 81.65 62.48C80.6504 62.48 79.84 63.2904 79.84 64.29C79.84 65.2896 80.6504 66.1 81.65 66.1Z" fill="#929493"/>
<path d="M101.61 66.1C102.61 66.1 103.42 65.2896 103.42 64.29C103.42 63.2904 102.61 62.48 101.61 62.48C100.61 62.48 99.8 63.2904 99.8 64.29C99.8 65.2896 100.61 66.1 101.61 66.1Z" fill="#929493"/>
<path d="M119.76 64.29C119.76 65.29 120.57 66.1 121.57 66.1C122.57 66.1 123.38 65.29 123.38 64.29C123.38 63.29 122.57 62.48 121.57 62.48C120.57 62.48 119.76 63.29 119.76 64.29Z" fill="#929493"/>
<path d="M139.72 64.29C139.72 65.29 140.53 66.1 141.53 66.1C142.53 66.1 143.34 65.29 143.34 64.29C143.34 63.29 142.53 62.48 141.53 62.48C140.53 62.48 139.72 63.29 139.72 64.29Z" fill="#929493"/>
<path d="M159.68 64.29C159.68 65.29 160.49 66.1 161.49 66.1C162.49 66.1 163.3 65.29 163.3 64.29C163.3 63.29 162.49 62.48 161.49 62.48C160.49 62.48 159.68 63.29 159.68 64.29Z" fill="#929493"/>
<path d="M179.64 64.29C179.64 65.29 180.45 66.1 181.45 66.1C182.45 66.1 183.26 65.29 183.26 64.29C183.26 63.29 182.45 62.48 181.45 62.48C180.45 62.48 179.64 63.29 179.64 64.29Z" fill="#929493"/>
<path d="M199.6 64.29C199.6 65.29 200.41 66.1 201.41 66.1C202.41 66.1 203.22 65.29 203.22 64.29C203.22 63.29 202.41 62.48 201.41 62.48C200.41 62.48 199.6 63.29 199.6 64.29Z" fill="#929493"/>
<path d="M219.56 64.29C219.56 65.29 220.37 66.1 221.37 66.1C222.37 66.1 223.18 65.29 223.18 64.29C223.18 63.29 222.37 62.48 221.37 62.48C220.37 62.48 219.56 63.29 219.56 64.29Z" fill="#929493"/>
<path d="M239.52 64.29C239.52 65.29 240.33 66.1 241.33 66.1C242.33 66.1 243.14 65.29 243.14 64.29C243.14 63.29 242.33 62.48 241.33 62.48C240.33 62.48 239.52 63.29 239.52 64.29Z" fill="#929493"/>
<path d="M0 79.91C0 80.91 0.81 81.72 1.81 81.72C2.81 81.72 3.62 80.91 3.62 79.91C3.62 78.91 2.81 78.1 1.81 78.1C0.81 78.1 0 78.91 0 79.91Z" fill="#929493"/>
<path d="M19.96 79.91C19.96 80.91 20.77 81.72 21.77 81.72C22.77 81.72 23.58 80.91 23.58 79.91C23.58 78.91 22.77 78.1 21.77 78.1C20.77 78.1 19.96 78.91 19.96 79.91Z" fill="#929493"/>
<path d="M39.92 79.91C39.92 80.91 40.73 81.72 41.73 81.72C42.73 81.72 43.54 80.91 43.54 79.91C43.54 78.91 42.73 78.1 41.73 78.1C40.73 78.1 39.92 78.91 39.92 79.91Z" fill="#929493"/>
<path d="M59.88 79.91C59.88 80.91 60.69 81.72 61.69 81.72C62.69 81.72 63.5 80.91 63.5 79.91C63.5 78.91 62.69 78.1 61.69 78.1C60.69 78.1 59.88 78.91 59.88 79.91Z" fill="#929493"/>
<path d="M79.84 79.91C79.84 80.91 80.65 81.72 81.65 81.72C82.65 81.72 83.46 80.91 83.46 79.91C83.46 78.91 82.65 78.1 81.65 78.1C80.65 78.1 79.84 78.91 79.84 79.91Z" fill="#929493"/>
<path d="M99.8 79.91C99.8 80.91 100.61 81.72 101.61 81.72C102.61 81.72 103.42 80.91 103.42 79.91C103.42 78.91 102.61 78.1 101.61 78.1C100.61 78.1 99.8 78.91 99.8 79.91Z" fill="#929493"/>
<path d="M119.76 79.91C119.76 80.91 120.57 81.72 121.57 81.72C122.57 81.72 123.38 80.91 123.38 79.91C123.38 78.91 122.57 78.1 121.57 78.1C120.57 78.1 119.76 78.91 119.76 79.91Z" fill="#929493"/>
<path d="M139.72 79.91C139.72 80.91 140.53 81.72 141.53 81.72C142.53 81.72 143.34 80.91 143.34 79.91C143.34 78.91 142.53 78.1 141.53 78.1C140.53 78.1 139.72 78.91 139.72 79.91Z" fill="#929493"/>
<path d="M159.68 79.91C159.68 80.91 160.49 81.72 161.49 81.72C162.49 81.72 163.3 80.91 163.3 79.91C163.3 78.91 162.49 78.1 161.49 78.1C160.49 78.1 159.68 78.91 159.68 79.91Z" fill="#929493"/>
<path d="M179.64 79.91C179.64 80.91 180.45 81.72 181.45 81.72C182.45 81.72 183.26 80.91 183.26 79.91C183.26 78.91 182.45 78.1 181.45 78.1C180.45 78.1 179.64 78.91 179.64 79.91Z" fill="#929493"/>
<path d="M199.6 79.91C199.6 80.91 200.41 81.72 201.41 81.72C202.41 81.72 203.22 80.91 203.22 79.91C203.22 78.91 202.41 78.1 201.41 78.1C200.41 78.1 199.6 78.91 199.6 79.91Z" fill="#929493"/>
<path d="M219.56 79.91C219.56 80.91 220.37 81.72 221.37 81.72C222.37 81.72 223.18 80.91 223.18 79.91C223.18 78.91 222.37 78.1 221.37 78.1C220.37 78.1 219.56 78.91 219.56 79.91Z" fill="#929493"/>
<path d="M239.52 79.91C239.52 80.91 240.33 81.72 241.33 81.72C242.33 81.72 243.14 80.91 243.14 79.91C243.14 78.91 242.33 78.1 241.33 78.1C240.33 78.1 239.52 78.91 239.52 79.91Z" fill="#929493"/>
</g>
<defs>
<clipPath id="clip0_86_14">
<rect width="243.14" height="88.65" fill="white"/>
</clipPath>
</defs>
</svg>
