<svg width="470" height="312" viewBox="0 0 470 312" fill="none" xmlns="http://www.w3.org/2000/svg">
<path d="M0 6.90107C0 10.7138 3.08489 13.8021 6.89339 13.8021C10.7019 13.8021 13.7868 10.7138 13.7868 6.90107C13.7868 3.08832 10.7019 0 6.89339 0C3.08489 0 0 3.08832 0 6.90107Z" fill="#929493" fill-opacity="0.2"/>
<path d="M76.0178 6.90107C76.0178 10.7138 79.1027 13.8021 82.9112 13.8021C86.7197 13.8021 89.8046 10.7138 89.8046 6.90107C89.8046 3.08832 86.7197 0 82.9112 0C79.1027 0 76.0178 3.08832 76.0178 6.90107Z" fill="#929493" fill-opacity="0.2"/>
<path d="M152.036 6.90107C152.036 10.7138 155.12 13.8021 158.929 13.8021C162.737 13.8021 165.822 10.7138 165.822 6.90107C165.822 3.08832 162.737 0 158.929 0C155.12 0 152.036 3.08832 152.036 6.90107Z" fill="#929493" fill-opacity="0.2"/>
<path d="M228.053 6.90107C228.053 10.7138 231.138 13.8021 234.947 13.8021C238.755 13.8021 241.84 10.7138 241.84 6.90107C241.84 3.08832 238.755 0 234.947 0C231.138 0 228.053 3.08832 228.053 6.90107Z" fill="#929493" fill-opacity="0.2"/>
<path d="M304.071 6.90107C304.071 10.7138 307.156 13.8021 310.964 13.8021C314.773 13.8021 317.858 10.7138 317.858 6.90107C317.858 3.08832 314.773 0 310.964 0C307.156 0 304.071 3.08832 304.071 6.90107Z" fill="#929493" fill-opacity="0.2"/>
<path d="M380.089 6.90107C380.089 10.7138 383.174 13.8021 386.982 13.8021C390.791 13.8021 393.876 10.7138 393.876 6.90107C393.876 3.08832 390.791 0 386.982 0C383.174 0 380.089 3.08832 380.089 6.90107Z" fill="#929493" fill-opacity="0.2"/>
<path d="M456.107 6.90107C456.107 10.7138 459.192 13.8021 463 13.8021C466.809 13.8021 469.893 10.7138 469.893 6.90107C469.893 3.08832 466.809 0 463 0C459.192 0 456.107 3.08832 456.107 6.90107Z" fill="#929493" fill-opacity="0.2"/>
<path d="M0 66.4562C0 70.2689 3.08489 73.3573 6.89339 73.3573C10.7019 73.3573 13.7868 70.2689 13.7868 66.4562C13.7868 62.6434 10.7019 59.5551 6.89339 59.5551C3.08489 59.5551 0 62.6434 0 66.4562Z" fill="#929493" fill-opacity="0.2"/>
<path d="M76.0178 66.4562C76.0178 70.2689 79.1027 73.3573 82.9112 73.3573C86.7197 73.3573 89.8046 70.2689 89.8046 66.4562C89.8046 62.6434 86.7197 59.5551 82.9112 59.5551C79.1027 59.5551 76.0178 62.6434 76.0178 66.4562Z" fill="#929493" fill-opacity="0.2"/>
<path d="M152.036 66.4562C152.036 70.2689 155.12 73.3573 158.929 73.3573C162.737 73.3573 165.822 70.2689 165.822 66.4562C165.822 62.6434 162.737 59.5551 158.929 59.5551C155.12 59.5551 152.036 62.6434 152.036 66.4562Z" fill="#929493" fill-opacity="0.2"/>
<path d="M228.053 66.4562C228.053 70.2689 231.138 73.3573 234.947 73.3573C238.755 73.3573 241.84 70.2689 241.84 66.4562C241.84 62.6434 238.755 59.5551 234.947 59.5551C231.138 59.5551 228.053 62.6434 228.053 66.4562Z" fill="#929493" fill-opacity="0.2"/>
<path d="M304.071 66.4562C304.071 70.2689 307.156 73.3573 310.964 73.3573C314.773 73.3573 317.858 70.2689 317.858 66.4562C317.858 62.6434 314.773 59.5551 310.964 59.5551C307.156 59.5551 304.071 62.6434 304.071 66.4562Z" fill="#929493" fill-opacity="0.2"/>
<path d="M380.089 66.4562C380.089 70.2689 383.174 73.3573 386.982 73.3573C390.791 73.3573 393.876 70.2689 393.876 66.4562C393.876 62.6434 390.791 59.5551 386.982 59.5551C383.174 59.5551 380.089 62.6434 380.089 66.4562Z" fill="#929493" fill-opacity="0.2"/>
<path d="M456.107 66.4562C456.107 70.2689 459.192 73.3573 463 73.3573C466.809 73.3573 469.893 70.2689 469.893 66.4562C469.893 62.6434 466.809 59.5551 463 59.5551C459.192 59.5551 456.107 62.6434 456.107 66.4562Z" fill="#929493" fill-opacity="0.2"/>
<path d="M0 126.011C0 129.824 3.08489 132.912 6.89339 132.912C10.7019 132.912 13.7868 129.824 13.7868 126.011C13.7868 122.199 10.7019 119.11 6.89339 119.11C3.08489 119.11 0 122.199 0 126.011Z" fill="#929493" fill-opacity="0.2"/>
<path d="M76.0178 126.011C76.0178 129.824 79.1027 132.912 82.9112 132.912C86.7197 132.912 89.8046 129.824 89.8046 126.011C89.8046 122.199 86.7197 119.11 82.9112 119.11C79.1027 119.11 76.0178 122.199 76.0178 126.011Z" fill="#929493" fill-opacity="0.2"/>
<path d="M152.036 126.011C152.036 129.824 155.12 132.912 158.929 132.912C162.737 132.912 165.822 129.824 165.822 126.011C165.822 122.199 162.737 119.11 158.929 119.11C155.12 119.11 152.036 122.199 152.036 126.011Z" fill="#929493" fill-opacity="0.2"/>
<path d="M228.053 126.011C228.053 129.824 231.138 132.912 234.947 132.912C238.755 132.912 241.84 129.824 241.84 126.011C241.84 122.199 238.755 119.11 234.947 119.11C231.138 119.11 228.053 122.199 228.053 126.011Z" fill="#929493" fill-opacity="0.2"/>
<path d="M304.071 126.011C304.071 129.824 307.156 132.912 310.964 132.912C314.773 132.912 317.858 129.824 317.858 126.011C317.858 122.199 314.773 119.11 310.964 119.11C307.156 119.11 304.071 122.199 304.071 126.011Z" fill="#929493" fill-opacity="0.2"/>
<path d="M380.089 126.011C380.089 129.824 383.174 132.912 386.982 132.912C390.791 132.912 393.876 129.824 393.876 126.011C393.876 122.199 390.791 119.11 386.982 119.11C383.174 119.11 380.089 122.199 380.089 126.011Z" fill="#929493" fill-opacity="0.2"/>
<path d="M456.107 126.011C456.107 129.824 459.192 132.912 463 132.912C466.809 132.912 469.893 129.824 469.893 126.011C469.893 122.199 466.809 119.11 463 119.11C459.192 119.11 456.107 122.199 456.107 126.011Z" fill="#929493" fill-opacity="0.2"/>
<path d="M0 185.566C0 189.379 3.08489 192.467 6.89339 192.467C10.7019 192.467 13.7868 189.379 13.7868 185.566C13.7868 181.754 10.7019 178.665 6.89339 178.665C3.08489 178.665 0 181.754 0 185.566Z" fill="#929493" fill-opacity="0.2"/>
<path d="M76.0178 185.566C76.0178 189.379 79.1027 192.467 82.9112 192.467C86.7197 192.467 89.8046 189.379 89.8046 185.566C89.8046 181.754 86.7197 178.665 82.9112 178.665C79.1027 178.665 76.0178 181.754 76.0178 185.566Z" fill="#929493" fill-opacity="0.2"/>
<path d="M152.036 185.566C152.036 189.379 155.12 192.467 158.929 192.467C162.737 192.467 165.822 189.379 165.822 185.566C165.822 181.754 162.737 178.665 158.929 178.665C155.12 178.665 152.036 181.754 152.036 185.566Z" fill="#929493" fill-opacity="0.2"/>
<path d="M228.053 185.566C228.053 189.379 231.138 192.467 234.947 192.467C238.755 192.467 241.84 189.379 241.84 185.566C241.84 181.754 238.755 178.665 234.947 178.665C231.138 178.665 228.053 181.754 228.053 185.566Z" fill="#929493" fill-opacity="0.2"/>
<path d="M304.071 185.566C304.071 189.379 307.156 192.467 310.964 192.467C314.773 192.467 317.858 189.379 317.858 185.566C317.858 181.754 314.773 178.665 310.964 178.665C307.156 178.665 304.071 181.754 304.071 185.566Z" fill="#929493" fill-opacity="0.2"/>
<path d="M380.089 185.566C380.089 189.379 383.174 192.467 386.982 192.467C390.791 192.467 393.876 189.379 393.876 185.566C393.876 181.754 390.791 178.665 386.982 178.665C383.174 178.665 380.089 181.754 380.089 185.566Z" fill="#929493" fill-opacity="0.2"/>
<path d="M456.107 185.566C456.107 189.379 459.192 192.467 463 192.467C466.809 192.467 469.893 189.379 469.893 185.566C469.893 181.754 466.809 178.665 463 178.665C459.192 178.665 456.107 181.754 456.107 185.566Z" fill="#929493" fill-opacity="0.2"/>
<path d="M0 245.121C0 248.934 3.08489 252.023 6.89339 252.023C10.7019 252.023 13.7868 248.934 13.7868 245.121C13.7868 241.309 10.7019 238.22 6.89339 238.22C3.08489 238.22 0 241.309 0 245.121Z" fill="#929493" fill-opacity="0.2"/>
<path d="M76.0178 245.121C76.0178 248.934 79.1027 252.023 82.9112 252.023C86.7197 252.023 89.8046 248.934 89.8046 245.121C89.8046 241.309 86.7197 238.22 82.9112 238.22C79.1027 238.22 76.0178 241.309 76.0178 245.121Z" fill="#929493" fill-opacity="0.2"/>
<path d="M152.036 245.121C152.036 248.934 155.12 252.023 158.929 252.023C162.737 252.023 165.822 248.934 165.822 245.121C165.822 241.309 162.737 238.22 158.929 238.22C155.12 238.22 152.036 241.309 152.036 245.121Z" fill="#929493" fill-opacity="0.2"/>
<path d="M234.947 252.023C238.754 252.023 241.84 248.933 241.84 245.121C241.84 241.31 238.754 238.22 234.947 238.22C231.14 238.22 228.053 241.31 228.053 245.121C228.053 248.933 231.14 252.023 234.947 252.023Z" fill="#929493" fill-opacity="0.2"/>
<path d="M310.964 252.023C314.772 252.023 317.858 248.933 317.858 245.121C317.858 241.31 314.772 238.22 310.964 238.22C307.157 238.22 304.071 241.31 304.071 245.121C304.071 248.933 307.157 252.023 310.964 252.023Z" fill="#929493" fill-opacity="0.2"/>
<path d="M386.982 252.023C390.789 252.023 393.876 248.933 393.876 245.121C393.876 241.31 390.789 238.22 386.982 238.22C383.175 238.22 380.089 241.31 380.089 245.121C380.089 248.933 383.175 252.023 386.982 252.023Z" fill="#929493" fill-opacity="0.2"/>
<path d="M456.107 245.121C456.107 248.934 459.192 252.023 463 252.023C466.809 252.023 469.893 248.934 469.893 245.121C469.893 241.309 466.809 238.22 463 238.22C459.192 238.22 456.107 241.309 456.107 245.121Z" fill="#929493" fill-opacity="0.2"/>
<path d="M0 304.677C0 308.489 3.08489 311.578 6.89339 311.578C10.7019 311.578 13.7868 308.489 13.7868 304.677C13.7868 300.864 10.7019 297.776 6.89339 297.776C3.08489 297.776 0 300.864 0 304.677Z" fill="#929493" fill-opacity="0.2"/>
<path d="M76.0178 304.677C76.0178 308.489 79.1027 311.578 82.9112 311.578C86.7197 311.578 89.8046 308.489 89.8046 304.677C89.8046 300.864 86.7197 297.776 82.9112 297.776C79.1027 297.776 76.0178 300.864 76.0178 304.677Z" fill="#929493" fill-opacity="0.2"/>
<path d="M152.036 304.677C152.036 308.489 155.12 311.578 158.929 311.578C162.737 311.578 165.822 308.489 165.822 304.677C165.822 300.864 162.737 297.776 158.929 297.776C155.12 297.776 152.036 300.864 152.036 304.677Z" fill="#929493" fill-opacity="0.2"/>
<path d="M228.053 304.677C228.053 308.489 231.138 311.578 234.947 311.578C238.755 311.578 241.84 308.489 241.84 304.677C241.84 300.864 238.755 297.776 234.947 297.776C231.138 297.776 228.053 300.864 228.053 304.677Z" fill="#929493" fill-opacity="0.2"/>
<path d="M304.071 304.677C304.071 308.489 307.156 311.578 310.964 311.578C314.773 311.578 317.858 308.489 317.858 304.677C317.858 300.864 314.773 297.776 310.964 297.776C307.156 297.776 304.071 300.864 304.071 304.677Z" fill="#929493" fill-opacity="0.2"/>
<path d="M380.089 304.677C380.089 308.489 383.174 311.578 386.982 311.578C390.791 311.578 393.876 308.489 393.876 304.677C393.876 300.864 390.791 297.776 386.982 297.776C383.174 297.776 380.089 300.864 380.089 304.677Z" fill="#929493" fill-opacity="0.2"/>
<path d="M456.107 304.677C456.107 308.489 459.192 311.578 463 311.578C466.809 311.578 469.893 308.489 469.893 304.677C469.893 300.864 466.809 297.776 463 297.776C459.192 297.776 456.107 300.864 456.107 304.677Z" fill="#929493" fill-opacity="0.2"/>
</svg>
