<svg width="610" height="243" viewBox="0 0 610 243" fill="none" xmlns="http://www.w3.org/2000/svg">
<g clip-path="url(#clip0_4_22)">
<path d="M-0.408386 4.96142C-0.408386 7.70254 1.80701 9.92284 4.54206 9.92284C7.27711 9.92284 9.4925 7.70254 9.4925 4.96142C9.4925 2.2203 7.27711 0 4.54206 0C1.80701 0 -0.408386 2.2203 -0.408386 4.96142Z" fill="white" fill-opacity="0.1"/>
<path d="M54.1832 4.96142C54.1832 7.70254 56.3986 9.92284 59.1336 9.92284C61.8687 9.92284 64.0841 7.70254 64.0841 4.96142C64.0841 2.2203 61.8687 0 59.1336 0C56.3986 0 54.1832 2.2203 54.1832 4.96142Z" fill="white" fill-opacity="0.1"/>
<path d="M108.775 4.96142C108.775 7.70254 110.99 9.92284 113.725 9.92284C116.46 9.92284 118.676 7.70254 118.676 4.96142C118.676 2.2203 116.46 0 113.725 0C110.99 0 108.775 2.2203 108.775 4.96142Z" fill="white" fill-opacity="0.1"/>
<path d="M163.366 4.96142C163.366 7.70254 165.582 9.92284 168.317 9.92284C171.052 9.92284 173.267 7.70254 173.267 4.96142C173.267 2.2203 171.052 0 168.317 0C165.582 0 163.366 2.2203 163.366 4.96142Z" fill="white" fill-opacity="0.1"/>
<path d="M217.958 4.96142C217.958 7.70254 220.173 9.92284 222.908 9.92284C225.643 9.92284 227.859 7.70254 227.859 4.96142C227.859 2.2203 225.643 0 222.908 0C220.173 0 217.958 2.2203 217.958 4.96142Z" fill="white" fill-opacity="0.1"/>
<path d="M272.55 4.96142C272.55 7.70254 274.765 9.92284 277.5 9.92284C280.235 9.92284 282.45 7.70254 282.45 4.96142C282.45 2.2203 280.235 0 277.5 0C274.765 0 272.55 2.2203 272.55 4.96142Z" fill="white" fill-opacity="0.1"/>
<path d="M327.141 4.96142C327.141 7.70254 329.356 9.92284 332.092 9.92284C334.827 9.92284 337.042 7.70254 337.042 4.96142C337.042 2.2203 334.827 0 332.092 0C329.356 0 327.141 2.2203 327.141 4.96142Z" fill="white" fill-opacity="0.1"/>
<path d="M381.733 4.96142C381.733 7.70254 383.948 9.92284 386.683 9.92284C389.418 9.92284 391.634 7.70254 391.634 4.96142C391.634 2.2203 389.418 0 386.683 0C383.948 0 381.733 2.2203 381.733 4.96142Z" fill="white" fill-opacity="0.1"/>
<path d="M436.324 4.96142C436.324 7.70254 438.54 9.92284 441.275 9.92284C444.01 9.92284 446.225 7.70254 446.225 4.96142C446.225 2.2203 444.01 0 441.275 0C438.54 0 436.324 2.2203 436.324 4.96142Z" fill="white" fill-opacity="0.1"/>
<path d="M490.916 4.96142C490.916 7.70254 493.131 9.92284 495.866 9.92284C498.601 9.92284 500.817 7.70254 500.817 4.96142C500.817 2.2203 498.601 0 495.866 0C493.131 0 490.916 2.2203 490.916 4.96142Z" fill="white" fill-opacity="0.1"/>
<path d="M545.508 4.96142C545.508 7.70254 547.723 9.92284 550.458 9.92284C553.193 9.92284 555.408 7.70254 555.408 4.96142C555.408 2.2203 553.193 0 550.458 0C547.723 0 545.508 2.2203 545.508 4.96142Z" fill="white" fill-opacity="0.1"/>
<path d="M600.099 4.96142C600.099 7.70254 602.315 9.92284 605.05 9.92284C607.785 9.92284 610 7.70254 610 4.96142C610 2.2203 607.785 0 605.05 0C602.315 0 600.099 2.2203 600.099 4.96142Z" fill="white" fill-opacity="0.1"/>
<path d="M-0.408386 51.5878C-0.408386 54.3289 1.80701 56.5492 4.54206 56.5492C7.27711 56.5492 9.4925 54.3289 9.4925 51.5878C9.4925 48.8467 7.27711 46.6264 4.54206 46.6264C1.80701 46.6264 -0.408386 48.8467 -0.408386 51.5878Z" fill="white" fill-opacity="0.1"/>
<path d="M54.1832 51.5878C54.1832 54.3289 56.3986 56.5492 59.1336 56.5492C61.8687 56.5492 64.0841 54.3289 64.0841 51.5878C64.0841 48.8467 61.8687 46.6264 59.1336 46.6264C56.3986 46.6264 54.1832 48.8467 54.1832 51.5878Z" fill="white" fill-opacity="0.1"/>
<path d="M108.775 51.5878C108.775 54.3289 110.99 56.5492 113.725 56.5492C116.46 56.5492 118.676 54.3289 118.676 51.5878C118.676 48.8467 116.46 46.6264 113.725 46.6264C110.99 46.6264 108.775 48.8467 108.775 51.5878Z" fill="white" fill-opacity="0.1"/>
<path d="M163.366 51.5878C163.366 54.3289 165.582 56.5492 168.317 56.5492C171.052 56.5492 173.267 54.3289 173.267 51.5878C173.267 48.8467 171.052 46.6264 168.317 46.6264C165.582 46.6264 163.366 48.8467 163.366 51.5878Z" fill="white" fill-opacity="0.1"/>
<path d="M217.958 51.5878C217.958 54.3289 220.173 56.5492 222.908 56.5492C225.643 56.5492 227.859 54.3289 227.859 51.5878C227.859 48.8467 225.643 46.6264 222.908 46.6264C220.173 46.6264 217.958 48.8467 217.958 51.5878Z" fill="white" fill-opacity="0.1"/>
<path d="M272.55 51.5878C272.55 54.3289 274.765 56.5492 277.5 56.5492C280.235 56.5492 282.45 54.3289 282.45 51.5878C282.45 48.8467 280.235 46.6264 277.5 46.6264C274.765 46.6264 272.55 48.8467 272.55 51.5878Z" fill="white" fill-opacity="0.1"/>
<path d="M327.141 51.5878C327.141 54.3289 329.356 56.5492 332.092 56.5492C334.827 56.5492 337.042 54.3289 337.042 51.5878C337.042 48.8467 334.827 46.6264 332.092 46.6264C329.356 46.6264 327.141 48.8467 327.141 51.5878Z" fill="white" fill-opacity="0.1"/>
<path d="M381.733 51.5878C381.733 54.3289 383.948 56.5492 386.683 56.5492C389.418 56.5492 391.634 54.3289 391.634 51.5878C391.634 48.8467 389.418 46.6264 386.683 46.6264C383.948 46.6264 381.733 48.8467 381.733 51.5878Z" fill="white" fill-opacity="0.1"/>
<path d="M436.324 51.5878C436.324 54.3289 438.54 56.5492 441.275 56.5492C444.01 56.5492 446.225 54.3289 446.225 51.5878C446.225 48.8467 444.01 46.6264 441.275 46.6264C438.54 46.6264 436.324 48.8467 436.324 51.5878Z" fill="white" fill-opacity="0.1"/>
<path d="M490.916 51.5878C490.916 54.3289 493.131 56.5492 495.866 56.5492C498.601 56.5492 500.817 54.3289 500.817 51.5878C500.817 48.8467 498.601 46.6264 495.866 46.6264C493.131 46.6264 490.916 48.8467 490.916 51.5878Z" fill="white" fill-opacity="0.1"/>
<path d="M545.508 51.5878C545.508 54.3289 547.723 56.5492 550.458 56.5492C553.193 56.5492 555.408 54.3289 555.408 51.5878C555.408 48.8467 553.193 46.6264 550.458 46.6264C547.723 46.6264 545.508 48.8467 545.508 51.5878Z" fill="white" fill-opacity="0.1"/>
<path d="M600.099 51.5878C600.099 54.3289 602.315 56.5492 605.05 56.5492C607.785 56.5492 610 54.3289 610 51.5878C610 48.8467 607.785 46.6264 605.05 46.6264C602.315 46.6264 600.099 48.8467 600.099 51.5878Z" fill="white" fill-opacity="0.1"/>
<path d="M-0.408386 98.1868C-0.408386 100.928 1.80701 103.148 4.54206 103.148C7.27711 103.148 9.4925 100.928 9.4925 98.1868C9.4925 95.4457 7.27711 93.2254 4.54206 93.2254C1.80701 93.2254 -0.408386 95.4457 -0.408386 98.1868Z" fill="white" fill-opacity="0.1"/>
<path d="M54.1832 98.1868C54.1832 100.928 56.3986 103.148 59.1336 103.148C61.8687 103.148 64.0841 100.928 64.0841 98.1868C64.0841 95.4457 61.8687 93.2254 59.1336 93.2254C56.3986 93.2254 54.1832 95.4457 54.1832 98.1868Z" fill="white" fill-opacity="0.1"/>
<path d="M108.775 98.1868C108.775 100.928 110.99 103.148 113.725 103.148C116.46 103.148 118.676 100.928 118.676 98.1868C118.676 95.4457 116.46 93.2254 113.725 93.2254C110.99 93.2254 108.775 95.4457 108.775 98.1868Z" fill="white" fill-opacity="0.1"/>
<path d="M163.366 98.1868C163.366 100.928 165.582 103.148 168.317 103.148C171.052 103.148 173.267 100.928 173.267 98.1868C173.267 95.4457 171.052 93.2254 168.317 93.2254C165.582 93.2254 163.366 95.4457 163.366 98.1868Z" fill="white" fill-opacity="0.1"/>
<path d="M217.958 98.1868C217.958 100.928 220.173 103.148 222.908 103.148C225.643 103.148 227.859 100.928 227.859 98.1868C227.859 95.4457 225.643 93.2254 222.908 93.2254C220.173 93.2254 217.958 95.4457 217.958 98.1868Z" fill="white" fill-opacity="0.1"/>
<path d="M272.55 98.1868C272.55 100.928 274.765 103.148 277.5 103.148C280.235 103.148 282.45 100.928 282.45 98.1868C282.45 95.4457 280.235 93.2254 277.5 93.2254C274.765 93.2254 272.55 95.4457 272.55 98.1868Z" fill="white" fill-opacity="0.1"/>
<path d="M327.141 98.1868C327.141 100.928 329.356 103.148 332.092 103.148C334.827 103.148 337.042 100.928 337.042 98.1868C337.042 95.4457 334.827 93.2254 332.092 93.2254C329.356 93.2254 327.141 95.4457 327.141 98.1868Z" fill="white" fill-opacity="0.1"/>
<path d="M381.733 98.1868C381.733 100.928 383.948 103.148 386.683 103.148C389.418 103.148 391.634 100.928 391.634 98.1868C391.634 95.4457 389.418 93.2254 386.683 93.2254C383.948 93.2254 381.733 95.4457 381.733 98.1868Z" fill="white" fill-opacity="0.1"/>
<path d="M436.324 98.1868C436.324 100.928 438.54 103.148 441.275 103.148C444.01 103.148 446.225 100.928 446.225 98.1868C446.225 95.4457 444.01 93.2254 441.275 93.2254C438.54 93.2254 436.324 95.4457 436.324 98.1868Z" fill="white" fill-opacity="0.1"/>
<path d="M490.916 98.1868C490.916 100.928 493.131 103.148 495.866 103.148C498.601 103.148 500.817 100.928 500.817 98.1868C500.817 95.4457 498.601 93.2254 495.866 93.2254C493.131 93.2254 490.916 95.4457 490.916 98.1868Z" fill="white" fill-opacity="0.1"/>
<path d="M545.508 98.1868C545.508 100.928 547.723 103.148 550.458 103.148C553.193 103.148 555.408 100.928 555.408 98.1868C555.408 95.4457 553.193 93.2254 550.458 93.2254C547.723 93.2254 545.508 95.4457 545.508 98.1868Z" fill="white" fill-opacity="0.1"/>
<path d="M600.099 98.1868C600.099 100.928 602.315 103.148 605.05 103.148C607.785 103.148 610 100.928 610 98.1868C610 95.4457 607.785 93.2254 605.05 93.2254C602.315 93.2254 600.099 95.4457 600.099 98.1868Z" fill="white" fill-opacity="0.1"/>
<path d="M-0.408386 144.813C-0.408386 147.554 1.80701 149.775 4.54206 149.775C7.27711 149.775 9.4925 147.554 9.4925 144.813C9.4925 142.072 7.27711 139.852 4.54206 139.852C1.80701 139.852 -0.408386 142.072 -0.408386 144.813Z" fill="white" fill-opacity="0.1"/>
<path d="M54.1832 144.813C54.1832 147.554 56.3986 149.775 59.1336 149.775C61.8687 149.775 64.0841 147.554 64.0841 144.813C64.0841 142.072 61.8687 139.852 59.1336 139.852C56.3986 139.852 54.1832 142.072 54.1832 144.813Z" fill="white" fill-opacity="0.1"/>
<path d="M108.775 144.813C108.775 147.554 110.99 149.775 113.725 149.775C116.46 149.775 118.676 147.554 118.676 144.813C118.676 142.072 116.46 139.852 113.725 139.852C110.99 139.852 108.775 142.072 108.775 144.813Z" fill="white" fill-opacity="0.1"/>
<path d="M163.366 144.813C163.366 147.554 165.582 149.775 168.317 149.775C171.052 149.775 173.267 147.554 173.267 144.813C173.267 142.072 171.052 139.852 168.317 139.852C165.582 139.852 163.366 142.072 163.366 144.813Z" fill="white" fill-opacity="0.1"/>
<path d="M217.958 144.813C217.958 147.554 220.173 149.775 222.908 149.775C225.643 149.775 227.859 147.554 227.859 144.813C227.859 142.072 225.643 139.852 222.908 139.852C220.173 139.852 217.958 142.072 217.958 144.813Z" fill="white" fill-opacity="0.1"/>
<path d="M272.55 144.813C272.55 147.554 274.765 149.775 277.5 149.775C280.235 149.775 282.45 147.554 282.45 144.813C282.45 142.072 280.235 139.852 277.5 139.852C274.765 139.852 272.55 142.072 272.55 144.813Z" fill="white" fill-opacity="0.1"/>
<path d="M327.141 144.813C327.141 147.554 329.356 149.775 332.092 149.775C334.827 149.775 337.042 147.554 337.042 144.813C337.042 142.072 334.827 139.852 332.092 139.852C329.356 139.852 327.141 142.072 327.141 144.813Z" fill="white" fill-opacity="0.1"/>
<path d="M381.733 144.813C381.733 147.554 383.948 149.775 386.683 149.775C389.418 149.775 391.634 147.554 391.634 144.813C391.634 142.072 389.418 139.852 386.683 139.852C383.948 139.852 381.733 142.072 381.733 144.813Z" fill="white" fill-opacity="0.1"/>
<path d="M436.324 144.813C436.324 147.554 438.54 149.775 441.275 149.775C444.01 149.775 446.225 147.554 446.225 144.813C446.225 142.072 444.01 139.852 441.275 139.852C438.54 139.852 436.324 142.072 436.324 144.813Z" fill="white" fill-opacity="0.1"/>
<path d="M490.916 144.813C490.916 147.554 493.131 149.775 495.866 149.775C498.601 149.775 500.817 147.554 500.817 144.813C500.817 142.072 498.601 139.852 495.866 139.852C493.131 139.852 490.916 142.072 490.916 144.813Z" fill="white" fill-opacity="0.1"/>
<path d="M545.508 144.813C545.508 147.554 547.723 149.775 550.458 149.775C553.193 149.775 555.408 147.554 555.408 144.813C555.408 142.072 553.193 139.852 550.458 139.852C547.723 139.852 545.508 142.072 545.508 144.813Z" fill="white" fill-opacity="0.1"/>
<path d="M600.099 144.813C600.099 147.554 602.315 149.775 605.05 149.775C607.785 149.775 610 147.554 610 144.813C610 142.072 607.785 139.852 605.05 139.852C602.315 139.852 600.099 142.072 600.099 144.813Z" fill="white" fill-opacity="0.1"/>
<path d="M-0.408386 191.44C-0.408386 194.181 1.80701 196.401 4.54206 196.401C7.27711 196.401 9.4925 194.181 9.4925 191.44C9.4925 188.698 7.27711 186.478 4.54206 186.478C1.80701 186.478 -0.408386 188.698 -0.408386 191.44Z" fill="white" fill-opacity="0.1"/>
<path d="M54.1832 191.44C54.1832 194.181 56.3986 196.401 59.1336 196.401C61.8687 196.401 64.0841 194.181 64.0841 191.44C64.0841 188.698 61.8687 186.478 59.1336 186.478C56.3986 186.478 54.1832 188.698 54.1832 191.44Z" fill="white" fill-opacity="0.1"/>
<path d="M113.725 196.401C116.459 196.401 118.676 194.18 118.676 191.44C118.676 188.699 116.459 186.478 113.725 186.478C110.991 186.478 108.775 188.699 108.775 191.44C108.775 194.18 110.991 196.401 113.725 196.401Z" fill="white" fill-opacity="0.1"/>
<path d="M168.317 196.401C171.051 196.401 173.267 194.18 173.267 191.44C173.267 188.699 171.051 186.478 168.317 186.478C165.583 186.478 163.366 188.699 163.366 191.44C163.366 194.18 165.583 196.401 168.317 196.401Z" fill="white" fill-opacity="0.1"/>
<path d="M222.908 196.401C225.642 196.401 227.859 194.18 227.859 191.44C227.859 188.699 225.642 186.478 222.908 186.478C220.174 186.478 217.958 188.699 217.958 191.44C217.958 194.18 220.174 196.401 222.908 196.401Z" fill="white" fill-opacity="0.1"/>
<path d="M272.55 191.44C272.55 194.181 274.765 196.401 277.5 196.401C280.235 196.401 282.45 194.181 282.45 191.44C282.45 188.698 280.235 186.478 277.5 186.478C274.765 186.478 272.55 188.698 272.55 191.44Z" fill="white" fill-opacity="0.1"/>
<path d="M327.141 191.44C327.141 194.181 329.356 196.401 332.092 196.401C334.827 196.401 337.042 194.181 337.042 191.44C337.042 188.698 334.827 186.478 332.092 186.478C329.356 186.478 327.141 188.698 327.141 191.44Z" fill="white" fill-opacity="0.1"/>
<path d="M381.733 191.44C381.733 194.181 383.948 196.401 386.683 196.401C389.418 196.401 391.634 194.181 391.634 191.44C391.634 188.698 389.418 186.478 386.683 186.478C383.948 186.478 381.733 188.698 381.733 191.44Z" fill="white" fill-opacity="0.1"/>
<path d="M436.324 191.44C436.324 194.181 438.54 196.401 441.275 196.401C444.01 196.401 446.225 194.181 446.225 191.44C446.225 188.698 444.01 186.478 441.275 186.478C438.54 186.478 436.324 188.698 436.324 191.44Z" fill="white" fill-opacity="0.1"/>
<path d="M490.916 191.44C490.916 194.181 493.131 196.401 495.866 196.401C498.601 196.401 500.817 194.181 500.817 191.44C500.817 188.698 498.601 186.478 495.866 186.478C493.131 186.478 490.916 188.698 490.916 191.44Z" fill="white" fill-opacity="0.1"/>
<path d="M545.508 191.44C545.508 194.181 547.723 196.401 550.458 196.401C553.193 196.401 555.408 194.181 555.408 191.44C555.408 188.698 553.193 186.478 550.458 186.478C547.723 186.478 545.508 188.698 545.508 191.44Z" fill="white" fill-opacity="0.1"/>
<path d="M600.099 191.44C600.099 194.181 602.315 196.401 605.05 196.401C607.785 196.401 610 194.181 610 191.44C610 188.698 607.785 186.478 605.05 186.478C602.315 186.478 600.099 188.698 600.099 191.44Z" fill="white" fill-opacity="0.1"/>
<path d="M-0.408386 238.039C-0.408386 240.78 1.80701 243 4.54206 243C7.27711 243 9.4925 240.78 9.4925 238.039C9.4925 235.297 7.27711 233.077 4.54206 233.077C1.80701 233.077 -0.408386 235.297 -0.408386 238.039Z" fill="white" fill-opacity="0.1"/>
<path d="M54.1832 238.039C54.1832 240.78 56.3986 243 59.1336 243C61.8687 243 64.0841 240.78 64.0841 238.039C64.0841 235.297 61.8687 233.077 59.1336 233.077C56.3986 233.077 54.1832 235.297 54.1832 238.039Z" fill="white" fill-opacity="0.1"/>
<path d="M108.775 238.039C108.775 240.78 110.99 243 113.725 243C116.46 243 118.676 240.78 118.676 238.039C118.676 235.297 116.46 233.077 113.725 233.077C110.99 233.077 108.775 235.297 108.775 238.039Z" fill="white" fill-opacity="0.1"/>
<path d="M163.366 238.039C163.366 240.78 165.582 243 168.317 243C171.052 243 173.267 240.78 173.267 238.039C173.267 235.297 171.052 233.077 168.317 233.077C165.582 233.077 163.366 235.297 163.366 238.039Z" fill="white" fill-opacity="0.1"/>
<path d="M217.958 238.039C217.958 240.78 220.173 243 222.908 243C225.643 243 227.859 240.78 227.859 238.039C227.859 235.297 225.643 233.077 222.908 233.077C220.173 233.077 217.958 235.297 217.958 238.039Z" fill="white" fill-opacity="0.1"/>
<path d="M272.55 238.039C272.55 240.78 274.765 243 277.5 243C280.235 243 282.45 240.78 282.45 238.039C282.45 235.297 280.235 233.077 277.5 233.077C274.765 233.077 272.55 235.297 272.55 238.039Z" fill="white" fill-opacity="0.1"/>
<path d="M327.141 238.039C327.141 240.78 329.356 243 332.092 243C334.827 243 337.042 240.78 337.042 238.039C337.042 235.297 334.827 233.077 332.092 233.077C329.356 233.077 327.141 235.297 327.141 238.039Z" fill="white" fill-opacity="0.1"/>
<path d="M381.733 238.039C381.733 240.78 383.948 243 386.683 243C389.418 243 391.634 240.78 391.634 238.039C391.634 235.297 389.418 233.077 386.683 233.077C383.948 233.077 381.733 235.297 381.733 238.039Z" fill="white" fill-opacity="0.1"/>
<path d="M436.324 238.039C436.324 240.78 438.54 243 441.275 243C444.01 243 446.225 240.78 446.225 238.039C446.225 235.297 444.01 233.077 441.275 233.077C438.54 233.077 436.324 235.297 436.324 238.039Z" fill="white" fill-opacity="0.1"/>
<path d="M490.916 238.039C490.916 240.78 493.131 243 495.866 243C498.601 243 500.817 240.78 500.817 238.039C500.817 235.297 498.601 233.077 495.866 233.077C493.131 233.077 490.916 235.297 490.916 238.039Z" fill="white" fill-opacity="0.1"/>
<path d="M545.508 238.039C545.508 240.78 547.723 243 550.458 243C553.193 243 555.408 240.78 555.408 238.039C555.408 235.297 553.193 233.077 550.458 233.077C547.723 233.077 545.508 235.297 545.508 238.039Z" fill="white" fill-opacity="0.1"/>
<path d="M600.099 238.039C600.099 240.78 602.315 243 605.05 243C607.785 243 610 240.78 610 238.039C610 235.297 607.785 233.077 605.05 233.077C602.315 233.077 600.099 235.297 600.099 238.039Z" fill="white" fill-opacity="0.1"/>
</g>
<defs>
<clipPath id="clip0_4_22">
<rect width="665" height="243" fill="white" transform="translate(-55)"/>
</clipPath>
</defs>
</svg>
