<svg width="257" height="58" viewBox="0 0 257 58" fill="none" xmlns="http://www.w3.org/2000/svg">
<g clip-path="url(#clip0_87_93)">
<path d="M74.1686 56.38C73.8474 56.53 73.4559 56.86 73.3053 57.11C73.1547 57.36 72.3716 57.59 72.4921 57.43C72.6126 57.27 73.0041 56.78 73.0744 56.67C73.1446 56.56 72.713 56.28 72.6327 56.1L72.5122 56.02L72.2311 55.82C72.0504 55.55 71.8496 55.24 71.7793 55.14C71.7091 55.04 71.3376 55.37 71.2272 55.54V55.78C71.2673 55.9 71.187 56.22 71.0565 56.48C70.926 56.74 70.8859 57.53 70.8357 57.54C70.7855 57.55 70.6048 57.54 70.5546 57.45C70.5044 57.36 70.2132 57.07 70.0827 56.94C69.9522 56.81 70.5445 56.52 70.6148 56.42C70.6851 56.32 70.675 56.15 70.4542 56.28C70.2333 56.41 69.5808 56.03 69.4402 56.06C69.2997 56.09 69.4603 56.54 69.5105 56.69L69.5306 56.82L69.5507 56.96C69.5507 57.1 69.2294 57.18 68.8479 57.12H68.5367L68.4865 57.14C68.4363 57.45 68.3259 57.67 68.2456 57.62C68.1653 57.57 67.7035 57.59 67.4324 57.67V57.65L67.2618 57.36C67.5529 57.32 67.7537 57.19 67.7135 57.07C67.6734 56.95 67.4023 56.7 67.2316 56.87C67.061 57.04 66.4385 57.47 66.1775 57.47C65.9165 57.47 65.2238 57.45 65.2238 57.43C65.2238 57.41 65.3543 57.34 65.535 57.32C65.7157 57.3 66.2076 57.1 66.2076 56.91C66.2076 56.72 66.9305 56.5 67.071 56.47C67.2116 56.44 67.6031 56.3 67.6533 56.23L67.6332 56.18C67.6031 56.12 67.4826 56.02 67.4425 56.03C66.7498 56.21 66.0771 56.43 65.3242 56.41L64.8223 56.39C64.5813 56.7 64.2802 57.01 64.1597 57.07C64.0392 57.13 63.7682 56.81 63.7079 56.76C63.6477 56.71 63.3566 56.59 63.216 56.53C63.0755 56.47 62.7643 56.28 62.8345 56.22C62.9048 56.16 63.206 56.03 63.3164 56.07L63.3465 56.14L63.5172 56.5C63.8987 56.44 64.2801 56.35 64.3605 56.31C64.4408 56.27 64.5914 55.99 64.5813 55.86C64.5713 55.73 64.0392 55.5 63.8485 55.47V55.42C63.6778 54.69 63.1959 55.1 63.1056 55.35C62.945 55.8 62.4229 55.84 62.1017 56.08L61.8206 56.3C61.6298 56.58 61.4391 56.69 61.3989 56.55L61.3789 56.42L61.3387 56.18C60.9974 56.05 60.4954 55.82 60.2143 55.68L60.1641 55.51C60.0437 55.09 59.7124 55.07 59.3008 55.07C59.1201 55.07 58.9092 54.88 58.7587 54.92C58.6181 54.96 58.5478 55.17 58.4274 55.3L58.3872 55.34C58.2266 55.36 58.2266 55.44 58.3772 55.52C58.5278 55.6 58.8089 55.89 58.6783 55.99C58.5478 56.09 57.6042 55.71 57.7146 55.59L57.7648 55.47C57.9254 55.11 57.7046 54.89 57.2528 55.04C56.8914 55.15 56.791 54.9 56.5701 54.88L56.289 54.86C55.9578 54.88 55.3253 54.99 54.8936 55.11L54.6527 55L54.3515 54.86C54.0805 54.89 53.6689 54.97 53.438 55.04C53.2071 55.11 52.4039 54.89 52.2232 54.85C52.0425 54.81 51.5908 54.88 51.3699 54.86C51.149 54.84 50.4563 54.8 50.2556 54.96C50.0548 55.12 49.2617 55.29 48.9204 54.98L48.4184 55.1L48.0671 55.19C47.7056 55.15 47.1334 55.12 46.782 55.12C46.4307 55.12 45.477 55.33 45.0754 55.43C44.6738 55.53 43.419 55.29 42.927 55.36L42.4351 55.13L42.0737 54.96C41.4312 55.11 40.7988 55.25 40.6783 55.29C40.5578 55.33 40.0157 55.29 39.7045 55.29C39.3933 55.29 38.5801 55.42 38.54 55.35C38.4998 55.28 38.3291 55.14 38.2187 55.22C38.1083 55.3 37.7168 55.41 37.5762 55.29L37.4357 55.2L37.3353 55.14C37.2048 55.11 37.0341 55.14 36.9538 55.21C36.8735 55.28 36.6125 55.4 36.5221 55.33C36.4318 55.26 36.0503 55.39 35.97 55.44C35.8897 55.49 35.458 55.56 35.0363 55.63L34.6649 55.51C34.4741 55.45 34.2834 55.37 34.0927 55.29C33.8517 55.19 33.6409 54.88 33.3096 55.2C33.2795 55.23 33.0888 55.2 33.0386 55.14C32.6772 54.81 32.5065 54.71 32.135 55.22L31.8841 55.56C31.7034 55.15 31.4925 54.9 31.4122 54.99C31.3319 55.08 31.0408 55.29 30.9805 55.18C30.9203 55.07 30.6292 54.81 30.4686 54.77C30.3079 54.73 29.9064 55.1 29.806 55.19C29.7056 55.28 29.3743 55.12 29.3241 55.2C29.2739 55.28 29.1735 55.31 29.2036 55.11C29.2337 54.91 28.6113 55.25 28.5712 55.26H28.531C28.1194 55.38 28.1094 54.75 27.5974 54.96L27.3263 55.07C26.9448 55.07 26.5433 55.05 26.4328 55.03C26.3224 55.01 25.9209 55.09 25.6598 55.1C25.3988 55.11 24.6359 54.92 24.4953 55.1L24.3246 55.19L24.2243 55.24C24.0335 55.2 23.7123 55.05 23.5215 54.92C23.3308 54.79 22.3068 55.13 22.2064 55.01C22.106 54.89 21.7044 54.7 21.584 54.82C21.4635 54.94 21.0017 54.69 20.9314 54.75L20.8712 54.81C20.8009 54.88 20.7206 55.03 20.6604 55.02C20.4395 55 20.048 55.17 20.0781 54.8V54.7C20.3492 54.58 20.4696 54.44 20.3492 54.38C20.2287 54.32 19.8372 54.27 19.7468 54.38C19.6565 54.49 19.2449 54.78 19.2549 54.5V54.36C19.2348 54.3 19.1746 54.18 19.1545 54.18L18.9337 54.21C18.6927 54.25 18.5421 54.12 18.6024 53.91L18.2108 54L18.1406 54.02C18.0703 54.09 17.8193 54.08 17.5683 54C17.3174 53.92 16.3637 53.92 16.0826 53.93C15.8015 53.94 14.9281 53.6 14.6972 53.63C14.4663 53.66 13.8639 53.76 13.7736 53.54C13.6832 53.32 12.6291 53.19 12.5388 53.21V53.19L12.0368 52.59C11.1735 52.5 10.3904 52.41 10.3101 52.38C10.2298 52.35 9.83826 52.37 9.52705 52.35C9.21584 52.33 7.95092 52.4 7.38873 52.44L7.2783 51.87C7.26826 51.81 7.0474 51.7 6.9972 51.72L6.67595 51.87C6.3547 51.75 6.02341 51.58 5.93306 51.48C5.84271 51.38 5.29056 51.2 5.12994 51.13C4.96931 51.06 4.46736 50.93 4.39708 50.95C4.32681 50.97 4.09591 50.91 4.04572 50.76L3.94533 50.66C3.88509 50.61 3.68431 50.6 3.59396 50.64C3.23255 50.8 2.83099 50.82 2.58001 50.84C2.02786 50.87 2.29892 50.68 2.32904 50.46C2.34911 50.35 1.99775 50.21 2.43947 50.16C2.64025 50.14 2.84103 50.06 3.03177 49.99C3.24259 49.9 3.20243 49.81 3.04181 49.68L2.87115 49.53C3.04181 49.4 3.39318 49.13 3.63411 48.94C3.87505 48.75 4.17622 48 3.90517 47.96L3.70439 47.98L3.47349 48C3.22251 48.08 2.85107 48.06 2.63021 47.96C2.40935 47.86 2.45954 46.99 2.54989 46.64C2.64025 46.29 2.82095 45.37 2.79083 45.36C2.76072 45.35 2.48966 45.5 2.29892 45.7L2.0379 45.37L1.90739 45.2C1.95759 45.04 2.10818 44.76 2.24872 44.57L2.00779 44.48L1.87728 44.43C1.57611 44.56 1.3954 44.53 1.47571 44.36L1.49579 44.22L1.54599 43.82C1.33517 43.43 1.13439 42.96 1.11431 42.79C1.09423 42.62 1.36528 42.04 1.76685 41.88C2.16841 41.72 2.16841 40.81 1.87728 40.88L1.70661 41L1.52591 41.12C1.31509 41.23 0.913526 41.05 0.622393 40.7L0.772979 40.41C0.823175 40.32 0.813136 40.2 0.87337 40.12C1.02396 39.91 1.19462 39.71 1.34521 39.51C1.52591 39.28 1.72669 39.81 1.93751 39.49L1.99775 39.4C2.24872 39.36 2.21861 39.26 1.93751 39.18V39.1C1.90739 38.96 2.0379 38.79 2.15837 38.66C2.21861 38.59 2.39931 38.6 2.4997 38.54C2.74064 38.4 2.81091 37.99 2.58001 37.93C2.27884 37.85 2.19853 37.76 2.0881 37.54L2.02786 37.43C1.60622 37.39 1.64638 37.24 2.11821 37.1C2.59005 36.96 3.85497 36.36 4.44728 36.68L5.16005 36.58C5.3006 36.56 5.60177 36.82 5.66201 36.99L5.81259 37.41C6.15392 37.29 6.33462 37.02 6.22419 36.82L6.24427 36.65C6.30451 36.13 6.41494 35.61 6.55548 35.1L6.5856 34.99C6.77634 34.9 7.01728 34.79 7.11767 34.75C7.21806 34.71 7.47908 34.4 7.65978 34.4C7.84049 34.4 8.3826 34.32 8.45287 34.29C8.52314 34.26 8.73396 34.07 8.81428 34C8.89459 33.93 9.26603 34.21 9.32627 34.25C9.3865 34.29 9.69771 34.35 9.72783 34.15C9.75795 33.95 9.99889 33.59 10.2298 33.72C10.4607 33.85 11.0731 33.57 11.0329 33.53C10.9928 33.49 10.9827 33.32 11.1132 33.25L11.1935 33.28C11.5047 33.39 11.8762 33.81 11.9766 33.14C12.077 33.12 12.3179 33.16 12.5087 33.22C12.6994 33.28 13.3319 33.06 13.5126 33.05C13.6933 33.04 14.2655 33.09 14.5466 33.08C14.8277 33.07 15.2995 32.66 15.0987 32.58C14.898 32.5 14.4663 32.06 14.5767 31.78C14.6871 31.5 13.5828 30.71 13.6832 30.68C13.7836 30.65 13.884 30.41 13.5929 30.22V30.06L13.613 29.7C13.3218 29.7 12.9805 29.59 12.85 29.48L12.7596 29.36L12.5588 29.09C12.6894 28.78 12.6994 28.27 12.5689 27.95L12.4886 27.65L12.4685 27.56C12.5087 27.44 12.7897 27.46 13.0809 27.61C13.372 27.76 14.2755 27.49 14.3056 27.44C14.3358 27.39 14.2354 27.19 14.0547 27.11L13.9643 27.15L13.7635 27.25C13.5025 27.38 13.3319 27.38 13.3821 27.25L13.4222 27.13L13.4624 27.01C13.5025 26.87 13.4724 26.78 13.4021 26.8C13.3319 26.82 13.0206 26.85 12.8701 26.81C12.7195 26.77 13.0206 26.17 13.1311 25.87L13.5427 25.8C13.623 25.79 13.7736 25.75 13.7736 25.74L13.7133 25.06C14.3659 24.8 14.7574 24.51 14.5867 24.42C14.4161 24.33 13.7535 24.45 13.6531 24.42C13.5527 24.39 12.7496 24.16 12.1472 23.94L11.5047 24.04C11.2136 24.09 11.1835 23.94 11.1032 23.74L10.9928 23.43C10.8121 23.62 10.4506 23.72 10.1896 23.65C9.92861 23.58 9.11545 23.26 8.95482 23.14L8.9749 23.12L9.19576 22.87C9.05521 22.62 8.88455 22.36 8.82431 22.31C8.76408 22.26 8.54322 22.17 8.48299 22.25L8.40267 22.3L8.29224 22.38C8.1517 22.45 7.86056 22.56 7.64974 22.63C7.43892 22.7 6.7663 22.82 6.66591 22.73C6.56552 22.64 6.34466 22.27 6.44505 22.11C6.54545 21.95 7.34857 22.21 7.66982 22.22L7.72002 22.05C7.77021 21.87 7.59955 21.48 7.5092 21.47L6.10373 21.42C6.28443 20.63 6.27439 19.96 6.07361 19.93C5.87283 19.9 5.52146 20.27 5.47126 20.23C5.42107 20.19 5.27048 20.06 5.25041 20.05C5.23033 20.04 5.1199 19.86 5.03958 19.7C4.95927 19.54 5.24037 18.98 5.33072 18.84L5.36084 18.71L5.39095 18.59C5.3508 18.45 5.21025 18.35 5.07974 18.37L4.95927 18.39L4.85888 18.41C4.75849 18.44 4.63802 18.39 4.59787 18.3L4.63802 18.26L4.82876 18.03C5.15001 17.69 5.10986 17.51 4.74845 17.64H4.53763L4.14611 17.68C3.69435 17.67 3.30283 17.54 3.27271 17.4V17.3L3.36306 16.25C2.82095 15.82 2.30896 15.43 2.21861 15.39L2.18849 15.34L2.07806 15.12C2.11821 14.86 2.01782 14.42 1.8572 14.15L1.6263 14.07C1.05407 13.88 1.06411 13.54 1.09423 13.15V13C1.09423 12.73 0.803096 12.62 0.451729 12.75L0.682628 12.4C0.903487 12.07 0.511963 12.08 0.391494 11.95C0.361377 11.91 0.140518 12.37 0.0300879 11.95L0.0100098 11.89C0.190713 11.79 0.371416 11.7 0.411573 11.68C0.451729 11.66 0.341299 11.32 0.0802833 10.98L0.170635 10.59C0.190713 10.49 0.281065 10.39 0.260987 10.3V10.19C0.170635 10.08 0.190713 10 0.291104 10.02C0.391495 10.04 0.853292 9.98 1.04403 9.83C1.23478 9.68 0.953683 9.1 1.09423 9.05L1.12435 9.08C1.48575 9.34 1.79696 9.39 2.10818 9.02L2.37923 8.7C2.67036 8.92 2.92134 9.01 2.95146 8.89C2.98158 8.77 3.43333 8.36 3.88509 8.24L4.1963 8.78L4.35693 9.06C4.79865 8.75 5.08978 8.47 4.99943 8.44C4.90908 8.41 4.68822 8.28 4.71833 8.2H4.73841C4.94923 8.2 5.17009 8.23 5.38091 8.25H5.4813C5.58169 8.29 5.7122 8.24 5.7624 8.14C5.81259 8.04 6.174 8.09 6.21416 8.03C6.25431 7.97 6.45509 7.77 6.52537 7.89C6.59564 8.01 6.9972 8.15 7.18795 7.83L7.34857 7.68L7.43892 7.6C7.61963 7.58 7.96095 7.64 8.19185 7.73C8.42275 7.82 9.27607 7.61 9.4367 7.71C9.59732 7.81 10.0993 8.04 10.29 7.75L10.4506 7.55L10.6113 7.35C10.9024 7.33 11.2738 7.38 11.4345 7.46C11.5951 7.54 11.9163 7.14 12.1171 7.15C12.3179 7.16 12.86 7.27 12.9303 7.32C13.0006 7.37 13.3419 7.45 13.4222 7.29C13.5025 7.13 13.874 6.72 14.0647 6.78C14.2555 6.84 14.7072 6.75 14.8478 6.7C14.9883 6.65 15.4099 6.81 15.4903 6.76V6.71L15.5405 6.52C15.7111 6.55 16.1729 6.7 16.5544 6.87L16.6046 6.35V6.31C16.6949 6.27 17.0764 6.17 17.4579 6.09C17.8394 6.01 19.1344 6.2 19.4657 6.19L19.7067 6.25C19.9576 6.31 20.1183 6.59 20.1383 6.13C20.1383 6.08 20.4295 5.99 20.4395 6C20.7407 6.36 21.1925 6.07 21.2828 5.97C21.5539 5.67 21.9454 6.08 22.2365 5.79L22.3469 5.68C22.8188 5.82 23.2605 5.94 23.3308 5.96C23.401 5.98 23.7725 5.79 24.0335 5.59C24.2945 5.39 25.188 5.74 25.2382 5.72V5.7L25.2181 5.16C25.6498 5.27 26.3023 5.22 26.6637 5.04L26.975 5.45L27.1255 5.65C27.4468 5.51 27.8785 5.33 28.0692 5.24L28.28 5.2H28.3503C28.4206 5.17 28.6414 5.16 28.8623 5.18C29.0832 5.2 29.8261 5.14 30.0469 5.18C30.2678 5.22 30.83 4.99 30.8802 5.05C30.9304 5.11 31.1713 5.25 31.2215 5.17L31.2717 5.11L31.3319 5.04C31.4022 4.97 31.4725 4.96 31.5026 5.01C31.5327 5.06 31.6431 5.24 31.6933 5.27H31.7435L32.1451 5.16C32.5968 5.08 33.0386 4.99 33.1189 4.95L33.1791 4.9L33.5907 4.52C33.9019 4.87 34.2131 5.07 34.2934 4.97C34.3738 4.87 34.6348 4.64 34.7151 4.7C34.7954 4.76 34.9661 4.54 34.9761 4.12L35.5584 4.65L35.6588 4.74C35.9599 4.69 36.3515 4.66 36.5322 4.67C36.7129 4.68 37.1245 4.77 37.1345 4.64C37.1445 4.51 37.7569 4.49 37.8473 4.58C37.9376 4.67 38.1083 4.51 38.0882 4.12L38.7307 4.61C38.7909 4.66 39.1524 4.47 39.3632 4.38L39.4736 4.33C39.584 4.27 40.0559 4.12 40.5076 4C40.9594 3.88 42.154 4.43 42.2444 4.43C42.3347 4.43 42.907 4.34 43.2985 4.27C43.69 4.2 45.1256 4.24 45.4167 4.27L45.5372 4.18L45.8384 3.96C46.0994 4.08 46.4708 4.2 46.6616 4.22H47.1635C47.4848 4.09 47.8964 3.94 48.0671 3.9C48.2377 3.86 49.071 3.79 49.5227 3.79H49.9343L50.0548 3.77C50.1853 3.72 50.3058 3.75 50.3258 3.85C50.3459 3.95 50.8278 3.89 50.8981 3.82C50.9683 3.75 51.2595 3.58 51.3699 3.67C51.4803 3.76 51.8518 3.9 52.0024 3.83C52.153 3.76 52.8155 3.55 53.1167 3.53L53.2171 3.66C53.438 3.94 53.699 3.38 53.9399 3.74L54.0403 3.89C54.4218 3.73 54.8233 3.65 54.9237 3.73C55.0241 3.81 55.3554 3.96 55.3855 3.89C55.4156 3.82 55.5562 3.65 55.6265 3.68C55.6967 3.71 55.9276 3.68 55.9778 3.56C56.028 3.44 56.9315 3.48 57.4536 3.38L58.0358 3.53C58.5077 3.65 59.1401 3.7 59.6923 3.38L59.9633 3.22C60.4753 3.3 60.9371 3.42 61.0074 3.49C61.0777 3.56 61.3789 3.58 61.5294 3.37C61.68 3.16 62.3928 3.52 62.443 3.44C62.4932 3.36 62.694 3.16 62.7241 3.3C62.7542 3.44 62.9148 3.6 63.0253 3.41C63.1357 3.22 63.979 3.5 64.3203 3.41L64.7319 3.47L65.274 3.55C65.9266 3.34 66.4887 3.22 66.5389 3.3C66.5891 3.38 66.7598 3.53 66.81 3.45C66.8602 3.37 67.0911 3.14 67.2216 3.13L67.2718 3.17L67.6533 3.48C68.1653 3.43 68.858 3.41 69.1893 3.44C69.5205 3.47 70.5746 3.32 70.8256 3.5L71.1168 3.17C71.1669 3.11 71.5284 3.27 71.7392 3.26L72.3716 3.24C73.0643 3.2 74.0381 3.09 74.52 3.01L74.8914 3.36L74.9617 3.43C75.2027 3.39 75.5641 3.36 75.7749 3.36C75.9857 3.36 76.4776 3.46 76.5077 3.35C76.5379 3.24 77.2004 3.3 77.4313 3.53L77.7927 3.24L77.9132 3.15C78.2445 3.21 78.626 3.27 78.7766 3.29C78.9272 3.31 79.4693 3.37 79.66 3.37H79.8407C79.9813 3.37 80.1218 3.39 80.2423 3.37C80.3828 3.34 80.5033 3.25 80.6438 3.22H80.7242C80.8346 3.25 81.0554 3.25 81.206 3.2C81.3566 3.15 81.8385 3.31 82.0794 3.47V3.05C82.22 3.05 82.742 3.17 83.2239 3.33L83.6756 3.35H84.027C84.4185 3.21 84.8201 3.04 84.9104 3.01C85.0008 2.98 85.322 3.16 85.4626 3.4L85.8943 3.27C86.1151 3.2 86.5167 3.14 86.597 3.22C86.9484 3.58 87.0588 2.99 87.3801 3.14L87.6611 3.27C88.0627 3.29 88.5747 3.36 88.7956 3.42L88.8658 3.36L89.2975 3.01C89.7593 3.18 90.201 3.27 90.2914 3.2C90.3817 3.13 90.7231 3 90.8134 3.11C90.9038 3.22 91.1748 3.53 91.1949 3.52C91.215 3.51 91.486 3.4 91.727 3.3C91.9679 3.2 93.0019 3.18 93.3332 3.22C93.6645 3.26 94.5379 3.18 94.7989 3.27C95.0599 3.36 95.7024 3.02 95.9333 3.14L96.5558 2.44C97.379 2.73 98.2122 2.97 98.413 2.97C98.6138 2.97 98.9953 2.9 98.9651 3.1C98.935 3.3 99.7281 2.92 99.9289 2.84C100.13 2.76 100.571 2.82 100.722 2.84C100.873 2.86 101.254 2.77 101.294 2.84C101.334 2.91 101.515 3.08 101.585 3C101.656 2.92 102.117 2.71 102.469 2.71L102.76 2.85L103.623 3.11L103.824 2.99C104.085 2.83 104.336 2.75 104.376 2.81C104.416 2.87 104.768 3.1 104.989 3.22L105.45 2.85L105.501 2.81C105.611 2.81 105.812 2.88 105.942 2.95C106.073 3.02 106.866 3 107.348 2.82L107.388 2.79L107.569 2.63C107.8 2.71 107.93 3.04 107.86 3.36L108.452 3.05L108.904 2.81C108.874 3.11 108.884 3.18 108.924 2.97C108.964 2.76 109.617 3.08 109.647 3.07C109.677 3.06 109.968 3.02 110.209 2.97C110.45 2.92 111.353 3.16 111.604 3.22C111.855 3.28 112.448 2.99 112.538 3.07C112.628 3.15 112.879 3.34 112.899 3.34C112.919 3.34 113.04 3.27 113.15 3.18C113.261 3.09 113.733 3 113.913 3.06H114.094C114.194 3.08 114.385 2.92 114.415 2.94L114.716 3.17C115.028 3.05 115.6 3.06 115.981 3.17L116.333 3.27L116.473 3.31C116.654 3.31 116.875 3.25 116.985 3.18C117.096 3.11 117.527 3.09 117.668 3C117.808 2.91 118.682 3.1 119.104 3.13L119.505 3.15L119.846 3.17C120.208 3.26 120.549 3.29 120.619 3.22C120.69 3.15 121.101 3.02 121.382 3.07L121.593 3.16C121.824 3.25 122.005 3.54 122.025 3.07C122.025 3.06 122.196 3.03 122.276 3.04C122.798 3.07 123.34 3.19 123.842 3.13L124.233 3.08C124.535 3.2 124.856 3.3 124.946 3.31C125.037 3.32 125.408 3.25 125.629 3.2C125.85 3.15 127.145 3.24 127.506 3.34C127.868 3.44 128.872 2.94 129.102 2.95C129.333 2.96 130.197 2.86 130.488 2.73C130.779 2.6 131.462 3.13 131.542 3.12C131.622 3.11 132.054 2.85 132.245 3.05L132.435 3.09C132.636 3.13 132.917 2.91 133.098 2.96L133.469 3.06C133.67 2.87 133.951 2.73 134.102 2.74L134.192 2.8L134.363 2.9C134.524 3.04 134.734 3.1 134.825 3.02C134.915 2.94 135.176 2.85 135.196 2.97C135.216 3.09 135.788 3.11 135.889 3.02C135.989 2.93 136.401 2.8 136.491 2.91C136.582 3.02 136.873 3.32 136.933 3.32L136.953 3.28C137.244 2.78 137.676 3.2 138.027 3.17H138.198C138.449 3.08 138.75 3.04 138.86 3.06C138.971 3.08 139.282 3.11 139.473 3.18C139.664 3.25 140.527 3.04 140.888 3.13L141.29 3.05C141.511 3 141.822 3.2 142.023 3.14L142.384 3.04C142.736 3.1 143.288 3.18 143.599 3.2L143.89 3.16L144.402 3.08C144.974 3.04 145.526 3 145.617 2.99C145.707 2.98 146.008 3.17 146.159 3.33C146.309 3.49 146.942 3.24 147.042 3.31C147.143 3.38 147.484 3.53 147.554 3.46V3.41C147.504 3.26 147.343 3 147.374 2.99L147.705 2.85C147.775 3.08 147.916 3.28 148.006 3.31C148.096 3.34 148.347 3.26 148.438 3.19C148.528 3.12 148.849 3 148.95 3.08C149.05 3.16 149.341 3.09 149.361 2.76L149.883 2.98H149.903C149.823 3.16 150.034 3.25 150.375 3.2C150.717 3.15 151.54 3.54 151.61 3.48V3.05C151.911 3.12 152.232 3.23 152.313 3.3C152.393 3.37 152.654 3.51 152.684 3.39C152.714 3.27 152.945 3.08 153.156 3.23C153.367 3.38 154.26 3.15 154.501 3.14C154.742 3.13 155.375 3.41 155.425 3.5C155.475 3.59 156.128 3.42 156.218 3.32C156.308 3.22 156.78 3.13 156.931 3.48L157.393 3.37C157.884 3.26 157.091 3 157.443 2.95L157.804 2.91C158.226 2.91 159.22 2.93 160.013 2.93H160.736C161.097 2.93 161.458 2.92 161.82 2.93H162.121C162.442 2.99 162.954 2.87 163.265 2.66L163.587 3.03L163.777 3.25C163.808 3.05 163.978 2.76 164.149 2.62L164.299 2.78L164.54 3.03C164.831 2.95 165.263 2.85 165.494 2.8C165.725 2.75 166.488 2.62 166.669 2.52C166.849 2.42 167.532 2.71 167.763 2.72C167.994 2.73 168.707 2.83 168.827 2.77C168.948 2.71 169.439 2.58 169.761 2.51L170.002 2.39L170.453 2.16C170.644 2.44 170.825 2.57 170.845 2.46C170.865 2.35 171.146 2.07 171.417 2.16C171.688 2.25 172.582 2.48 172.853 2.48C173.124 2.48 174.077 2.08 174.6 2.07L175.031 2.09C175.473 2.11 175.885 2.03 176.306 2.04H176.597C176.828 1.93 177.24 1.9 177.511 1.98L177.641 1.91C178.063 1.7 178.183 1.79 178.234 2.15V2.18C178.475 2.18 179.017 1.97 179.438 1.7L180.071 2.12L180.131 2.16C180.201 2.21 180.262 2.1 180.272 1.91C180.282 1.72 181.095 1.94 181.286 1.99C181.476 2.04 182.159 1.99 182.36 1.94C182.56 1.89 183.193 1.75 183.354 1.79C183.514 1.83 184.147 1.62 184.508 1.66C184.869 1.7 185.924 1.63 186.074 1.69C186.225 1.75 186.546 1.99 186.576 1.92C186.606 1.85 186.807 1.72 186.877 1.94L186.988 1.98L187.168 2.04C187.409 2.01 187.941 1.97 188.353 1.94L188.594 1.79L188.915 1.59C189.146 1.7 189.427 1.8 189.528 1.8C189.628 1.8 189.909 1.69 189.999 1.64C190.09 1.59 190.672 1.72 190.993 1.79C191.315 1.86 192.228 1.62 192.308 1.59C192.389 1.56 192.8 2.01 192.83 1.88C192.861 1.75 193.142 1.46 193.423 1.46H193.664L193.985 1.49C194.316 1.63 194.798 1.71 195.039 1.67C195.28 1.63 196.033 1.42 196.224 1.38C196.414 1.34 196.886 1.53 196.916 1.41C196.946 1.29 197.087 0.980001 197.167 0.990001L197.208 1.02C197.529 1.28 197.8 1.57 198.342 1.27L198.503 1.18C198.814 1.24 199.185 1.27 199.326 1.25C199.466 1.23 199.918 1.37 200.018 1.38L200.099 1.36L200.43 1.29C200.791 1.21 201.313 1.18 201.595 1.22L201.856 1.24L202.056 1.26C202.327 1.06 202.629 0.990001 202.719 1.1C202.809 1.21 203.11 1.36 203.241 1.25C203.371 1.14 203.914 0.910001 204.054 1.05C204.195 1.19 204.687 1.31 205.108 1.34L205.45 1.39L205.781 1.44C206.022 1.34 206.433 1.25 206.674 1.24L206.885 1.14L206.986 1.09C207.146 1.12 207.678 1.03 208.17 0.900001L208.652 1.22L208.903 1.39C209.395 1.36 209.817 1.21 209.837 1.04C209.857 0.870001 210.459 0.990001 210.61 1.05C210.76 1.11 211.353 1.16 211.553 1.19C211.754 1.22 212.246 0.990001 212.286 1.01C212.326 1.03 212.507 1.16 212.607 1.24C212.708 1.32 213.481 1.48 213.37 1.37C213.26 1.26 213.28 1.13 213.621 1.28L213.993 0.930001C214.153 0.780001 214.686 0.890001 215.047 0.910001H215.308C215.509 1.09 215.73 1.23 215.79 1.24C215.85 1.25 216.352 1.26 216.844 1.3L217.185 0.930001L217.235 0.870001C217.717 1.03 218.059 1.08 217.998 0.970001C217.938 0.860001 217.858 0.580001 217.898 0.540001C217.938 0.500001 218.29 0.430001 218.611 0.390001C218.932 0.350001 219.816 0.620001 219.956 0.540001L220.026 0.570001L220.338 0.710001C220.709 0.690001 221.161 0.750001 221.331 0.840001C221.502 0.930001 222.145 0.420001 222.546 0.180001L222.938 0.320001L223.389 0.480001C223.66 0.270001 223.911 0.100001 223.952 0.0900007C223.992 0.0800007 224.152 0.0400007 224.283 -0.0399993C224.413 -0.119999 224.935 0.100001 225.076 0.170001C225.217 0.240001 225.759 0.380001 225.648 0.170001C225.538 -0.0399993 226.16 0.140001 226.281 0.120001C226.401 0.100001 226.853 0.140001 227.024 0.270001C227.194 0.400001 227.857 0.380001 227.817 0.320001C227.776 0.260001 228.349 0.140001 229.202 0.160001L229.513 0.350001L230.096 0.710001C230.146 0.330001 230.397 0.210001 230.658 0.440001L231.2 0.280001C231.772 0.110001 232.475 0.180001 233.117 0.430001C233.358 0.520001 233.71 0.720001 234.131 0.490001C234.322 0.390001 234.834 0.620001 235.175 0.750001C235.336 0.820001 234.764 0.970001 235.135 1.1C235.236 1.14 235.436 0.940001 235.587 0.960001C235.808 0.980001 236.159 1.04 236.219 1.17L236.43 1.57C236.892 1.69 237.504 1.86 237.806 1.95C238.107 2.04 239.06 2.2 239.241 2.17C239.422 2.14 239.964 2.3 240.094 2.25C240.225 2.2 240.486 2.17 240.456 2.35C240.426 2.53 241.088 2.27 241.209 2.24C241.329 2.21 241.781 2.24 242.142 2.24C242.504 2.24 243.407 2.63 243.498 2.6C243.588 2.57 243.909 2.55 243.919 2.65C243.929 2.75 244.251 3.04 244.622 2.97C244.993 2.9 246.128 3.31 246.56 3.42L246.7 3.87C246.77 4.09 247.413 4.12 247.533 4.56L247.594 4.76C248.005 4.91 248.417 5.06 248.507 5.09C248.598 5.12 248.748 5.33 248.658 5.49L249.029 5.64C248.889 5.88 248.778 6.26 248.788 6.49L248.828 6.7L248.909 7.15C249.019 7.64 249.18 8.05 249.27 8.07H249.451C249.551 8.08 249.642 8.12 249.652 8.17C249.662 8.22 249.461 8.36 249.26 8.45L249.099 8.55C249.099 8.55 249.099 8.69 249.13 8.75C249.14 8.78 249.25 8.78 249.31 8.77C249.35 8.77 249.371 8.7 249.411 8.7L249.621 8.67C249.852 8.64 250.043 8.68 250.023 8.75C250.003 8.82 250.194 9.16 250.455 9.35L250.625 9.55L250.736 9.68C250.756 9.94 250.515 10.06 250.214 9.95C249.913 9.84 249.16 9.93 249.411 10.48C249.662 11.03 249.712 12.54 249.461 12.61C249.21 12.68 248.527 12.91 248.618 12.93C248.708 12.95 249.039 13.14 249.27 13.29L249.36 13.46C249.611 13.97 249.772 13.19 250.033 13.45L250.184 13.6C250.495 13.71 250.656 13.94 250.555 14.1C250.455 14.26 250.766 15.1 250.826 15.5L250.625 15.87C250.405 16.27 250.816 16.94 251.328 16.98L251.76 17.01C252.242 17.09 252.453 17.17 252.222 17.18C251.991 17.19 251.338 17.34 251.338 17.48C251.338 17.62 251.569 18.04 251.86 17.99L252.131 17.96L252.282 17.94C252.442 17.94 252.714 17.97 252.874 18C253.035 18.03 253.838 17.96 254.219 17.97C254.601 17.98 255.053 18.81 255.002 18.88L254.802 18.85C254.4 18.8 254.189 19.06 254.35 19.33C254.45 19.52 254.551 19.75 254.741 19.85L255.153 20.06C255.183 20.42 255.284 20.64 255.394 20.54L255.504 20.52C255.615 20.5 255.785 20.52 255.856 20.58C255.916 20.64 255.926 20.8 255.866 20.86C255.685 21.08 255.434 21.21 255.073 21.17C255.002 21.17 254.852 21.29 254.842 21.36C254.842 21.44 254.922 21.56 255.012 21.6L255.304 21.72C255.645 21.83 255.635 22.05 255.284 22.22L254.972 22.24H254.721C254.36 22.07 254.059 22.17 254.059 22.47L254.009 22.67L253.928 22.96C253.577 23.05 253.135 23.14 252.924 23.15C252.714 23.16 252.774 23.79 252.904 24.13C253.035 24.47 253.276 25.57 253.065 25.66C252.854 25.75 253.045 26.33 253.165 26.43C253.286 26.53 253.497 26.88 253.326 26.98L253.115 27.05C252.934 27.11 252.724 26.78 252.533 27.08L252.513 27.12C252.342 27.09 252.021 26.99 251.8 26.91C251.579 26.83 250.736 26.98 250.374 27.05C250.013 27.12 248.828 26.8 248.537 26.68C248.246 26.56 247.182 26.63 246.951 26.59C246.72 26.55 246.158 26.26 246.088 26.38C246.017 26.5 245.877 26.92 245.897 27.08C245.917 27.24 246.62 27.34 246.78 27.34L246.851 27.4C247.001 27.53 246.881 27.85 247.323 27.8H247.393C247.513 28.03 247.784 28.05 247.995 27.85L248.045 28.3V28.39C248.316 28.47 248.768 28.53 249.059 28.52L249.11 28.8L249.15 29.03C249.22 29.29 249.15 29.43 249.009 29.34C248.869 29.25 248.316 29.19 248.226 29.26C248.136 29.33 247.714 29.41 247.483 29.28C247.252 29.15 246.73 28.72 246.65 28.82L246.67 28.87C246.801 29.17 247.102 29.48 247.051 29.75L246.991 30.06C246.63 30.42 246.429 30.78 246.55 30.87C246.67 30.96 247.152 30.94 247.343 30.79L247.473 30.62L247.553 30.51C247.574 30.35 247.624 30.24 247.674 30.25L247.694 30.27L247.965 30.61C248.286 30.43 248.638 30.33 248.738 30.37C248.838 30.41 248.808 30.71 248.437 30.93L248.678 31.28L248.778 31.43C249.039 31.36 249.381 31.57 249.531 31.89C249.682 32.21 249.872 32.57 249.802 32.63C249.732 32.69 249.371 32.71 249.16 32.55L248.959 32.41L248.929 32.39C248.818 32.39 248.678 32.49 248.608 32.59C248.537 32.69 248.457 33.03 248.648 33.04C248.838 33.05 249.371 33.19 249.21 33.29C249.049 33.39 248.638 33.77 248.708 33.89C248.778 34.01 249.049 34.32 249.13 34.23L249.21 34.21C249.471 34.15 249.852 34.4 250.144 34.88L250.264 35.08C250.103 35.31 249.923 35.53 249.872 35.58C249.822 35.63 249.802 35.83 249.963 35.91H250.103C250.475 35.91 250.595 36.02 250.435 36.3C250.395 36.38 250.284 36.5 250.314 36.53L250.485 36.68C250.435 36.85 250.214 36.96 250.003 36.92L249.903 36.69L249.862 36.6C249.33 36.56 249.35 36.69 249.903 36.89L249.682 37.3L249.571 37.52C249.481 37.77 249.491 38.05 249.591 38.13C249.692 38.21 249.893 38.64 249.752 38.8C249.611 38.96 248.939 39.18 248.929 39.33L248.999 39.43L249.13 39.63C249.24 39.88 249.23 40.01 249.13 39.92C249.029 39.83 248.567 39.74 248.437 39.78C248.306 39.82 247.835 39.82 247.674 39.78C247.513 39.74 247.051 39.83 247.132 39.89C247.212 39.95 247.513 40.19 247.644 40.28C247.774 40.37 248.206 40.15 248.246 40.15C248.286 40.15 248.387 40.25 248.357 40.43C248.326 40.61 249.019 40.43 249.15 40.4C249.28 40.37 249.491 40.53 249.26 40.62C249.029 40.71 248.407 40.89 248.357 40.8C248.306 40.71 248.055 40.58 247.975 40.59C247.895 40.6 247.594 41.11 247.473 41.1C247.353 41.09 246.941 41.29 246.841 41.57L246.961 41.85C247.072 42.11 247.232 42.28 247.594 42.31H247.664C247.754 42.39 247.724 42.59 247.604 42.75C247.483 42.91 246.901 43.23 246.841 43.31C246.78 43.39 246.79 43.66 246.7 43.68C246.61 43.7 246.54 43.87 246.519 43.89C246.499 43.91 246.55 44.05 246.69 44.16C246.831 44.27 247.132 44.77 247.112 45.07L246.961 45.23C246.54 45.67 246.64 45.91 247.242 46.18L247.704 46.39C247.403 46.69 247.062 47.09 246.941 47.28C246.821 47.47 246.459 47.7 246.79 47.72L246.75 48.13L246.73 48.3C246.76 48.55 246.811 48.92 246.841 49.13L247.021 49.27L247.232 49.44C247.162 49.64 247.031 50 246.931 50.24L247.142 50.48L247.664 51.08C247.222 51.33 246.851 51.55 246.831 51.56C246.811 51.57 247.132 52.15 247.664 52.74L248.055 53.33L248.166 53.5C247.945 53.45 247.744 53.4 247.714 53.39C247.684 53.38 247.483 53.44 247.363 53.52C247.242 53.6 246.79 53.79 246.68 53.8C246.57 53.81 246.078 53.89 245.847 53.99L245.616 54.08L245.345 54.19C245.034 54.15 244.251 54.25 243.608 54.41C242.966 54.57 240.898 54.7 240.536 54.79L240.205 54.83L239.864 54.87C239.512 54.95 238.609 55.03 237.876 55.05H236.852C236.51 55.17 236.029 55.47 235.778 55.7L235.456 55.31C235.416 55.26 234.854 55.43 234.854 55.42C234.683 55.01 234.352 55.72 234.121 55.34L234.041 55.21C233.679 55.42 233.248 55.55 233.087 55.5L233.057 55.53L232.726 55.77C232.304 55.73 231.812 55.77 231.642 55.85C231.471 55.93 230.778 55.76 230.608 55.79C230.437 55.82 229.614 55.93 229.182 55.93C228.75 55.93 227.576 56.22 227.465 56.12C227.355 56.02 226.632 56.3 226.301 56.41L226.04 56.35L225.598 56.25C225.146 56.32 224.554 56.39 224.283 56.42C224.012 56.45 223.399 56.61 223.349 56.54C223.299 56.47 222.827 56.58 222.576 56.76C222.325 56.94 221.301 56.68 221.07 56.77L220.99 56.72L220.629 56.49C220.327 56.67 219.745 56.78 219.334 56.74L219.002 56.82L218.671 56.91C218.36 56.82 217.788 56.76 217.406 56.77L217.055 56.81L216.723 56.85C216.372 56.95 215.85 56.91 215.559 56.76L215.167 56.94L214.886 57.07C214.475 57.05 213.682 57.11 213.129 57.2L212.577 57.07L212.206 56.98C211.714 57.11 211.182 57.23 211.021 57.25C210.861 57.27 210.349 57.13 210.198 57.19C210.047 57.25 209.535 57.23 209.184 57.22C208.833 57.21 207.949 57.38 207.919 57.31C207.889 57.24 207.789 57.23 207.779 57.44C207.769 57.65 207.066 57.27 206.925 57.26C206.785 57.25 206.152 57.28 205.851 57.32C205.55 57.36 204.747 57.25 204.536 57.29C204.325 57.33 203.542 57.22 203.261 57.18C202.98 57.14 201.986 57.2 201.685 57.14C201.384 57.08 200.591 57.46 200.46 57.48C200.33 57.5 199.908 57.38 199.747 57.4C199.587 57.42 199.115 57.38 198.754 57.36C198.392 57.34 197.368 57.25 197.248 57.25C197.127 57.25 196.806 57.36 196.706 57.23C196.605 57.1 195.752 57.25 195.481 57.28C195.21 57.31 194.206 57.38 193.824 57.57L193.353 57.28L193.011 57.07C192.449 57.06 191.586 57.14 191.094 57.26L190.602 57.08L190.532 57.05C190.311 57.27 189.919 57.31 189.668 57.15C189.417 56.99 188.122 57.29 187.56 57.35C186.998 57.41 185.482 57.06 185.402 57.05C185.321 57.04 184.769 57.13 184.247 57.2L183.755 57.05L183.464 56.96C183.293 57.26 182.982 57.41 182.751 57.3C182.52 57.19 181.918 57.02 181.777 57.14C181.637 57.26 181.095 57.52 180.974 57.4C180.854 57.28 180.262 57.1 179.78 57.15L179.448 57.28C179.077 57.43 178.736 57.4 178.455 57.25L178.133 57.09C177.882 57.23 177.551 57.3 177.41 57.25C177.27 57.2 176.738 57.08 176.587 57.06C176.437 57.04 175.935 57.15 175.764 57.26C175.593 57.37 175.011 57.26 174.861 57.3C174.71 57.34 174.077 57.29 173.887 57.28C173.696 57.27 173.174 57.18 173.154 57.07C173.134 56.96 173.033 56.64 172.953 56.69C172.873 56.74 172.672 56.74 172.632 56.64C172.592 56.54 172.27 56.47 172.11 56.53L172.019 56.71C171.949 56.86 171.608 56.92 171.397 57.03C170.815 57.37 170.795 57.37 170.182 56.97L170.082 56.91C169.941 56.84 169.731 56.87 169.6 56.96C169.47 57.05 168.927 57.23 168.747 57.1C168.566 56.97 168.034 56.69 168.014 56.8C167.994 56.91 167.703 57.25 167.432 57.28C167.161 57.31 165.785 57.19 164.882 57.36L164.008 57.08L163.737 56.99C163.275 57.23 162.824 57.33 162.743 57.21C162.663 57.09 162.241 57.32 162.191 57.36C162.141 57.4 161.729 57.41 161.318 57.41C160.906 57.41 159.722 57.22 159.561 57.18C159.4 57.14 158.818 57.35 158.627 57.45C158.437 57.55 157.483 57.52 157.091 57.78L156.63 57.42L156.359 57.21C156.037 57.3 155.606 57.29 155.415 57.2C155.224 57.11 154.652 57.5 154.451 57.53C154.25 57.56 153.628 57.38 153.608 57.27C153.588 57.16 153.297 56.95 153.036 57.15L152.845 57.33L152.624 57.53C152.373 57.44 152.072 57.41 151.951 57.47C151.831 57.53 151.459 57.61 151.439 57.49C151.419 57.37 151.309 57.33 151.239 57.65L150.787 57.48L150.556 57.39C150.355 57.44 150.084 57.5 149.934 57.53C149.783 57.56 149.261 57.36 149.09 57.39C148.92 57.42 148.317 57.39 148.126 57.28C147.936 57.17 147.273 57.23 146.982 57.16L146.721 57.11C146.611 57.09 146.37 57.24 146.35 57.22C146.129 56.98 146.018 57.19 145.848 57.26C145.767 57.29 145.577 57.12 145.426 57.07C145.396 57.07 145.265 57.17 145.255 57.23V57.28C145.356 57.34 145.406 57.41 145.366 57.45C145.326 57.49 145.135 57.46 145.004 57.42C144.874 57.38 144.322 57.41 144.071 57.5H143.84C143.478 57.5 142.986 57.28 142.796 57.4L142.424 57.64C142.123 57.5 141.752 57.4 141.591 57.41C141.43 57.42 140.908 57.6 140.768 57.7C140.627 57.8 140.497 57.37 140.477 57.35C140.457 57.33 140.125 57.35 139.744 57.38C139.362 57.41 138.148 57.53 137.877 57.56C137.606 57.59 136.833 56.96 136.732 57.05C136.632 57.14 136.391 57.58 135.969 57.63C135.548 57.68 133.941 57.21 133.259 57.04L132.666 57.51L132.506 57.64C132.094 57.57 131.672 57.46 131.562 57.41C131.452 57.36 131.01 57.45 130.829 57.36C130.648 57.27 130.046 57.5 129.956 57.51C129.865 57.52 129.333 57.49 128.992 57.45C128.651 57.41 127.275 57.52 126.663 57.63L126.151 57.3C126.151 57.3 124.896 57.55 124.886 57.57C124.826 57.62 124.766 57.71 124.695 57.72L124.384 57.78C124.093 57.65 123.882 57.44 123.902 57.33C123.922 57.22 123.842 56.89 123.721 56.89C123.601 56.89 123.35 56.98 123.44 57.08V57.19L123.471 57.34C123.471 57.56 123.199 57.69 122.888 57.62H122.396C122.165 57.67 121.714 57.74 121.392 57.76C121.071 57.78 120.117 57.61 119.927 57.68C119.736 57.75 119.104 57.59 118.923 57.68C118.742 57.77 118.14 57.62 118.039 57.66H117.939C117.467 57.73 117.035 57.72 116.544 57.58L116.112 57.46C115.51 57.47 114.857 57.48 114.666 57.47C114.476 57.46 114.285 57.08 114.054 57.34L113.933 57.48L113.863 57.56C113.793 57.65 113.472 57.78 113.15 57.85C112.829 57.92 111.855 57.58 111.685 57.55C111.514 57.52 111.193 57.55 111.082 57.5C110.972 57.45 110.52 57.5 110.38 57.52C110.239 57.54 109.627 57.57 109.315 57.54C109.004 57.51 108.211 57.32 108.201 57.27C108.191 57.22 108.01 57.33 107.84 57.62L107.318 57.36C107.177 57.29 106.786 57.63 106.484 57.66L106.223 57.69C105.922 57.58 105.43 57.69 105.149 57.95L104.718 57.64L104.467 57.47C104.065 57.32 103.663 57.28 103.593 57.39C103.523 57.5 103.161 57.75 103.061 57.62C102.961 57.49 102.549 57.37 102.348 57.56L102.158 57.65C102.047 57.7 101.726 57.64 101.726 57.61L101.676 57.12C101.154 56.98 100.702 56.99 100.662 57.15C100.622 57.31 100.33 57.59 100.059 57.54L99.8385 57.59C99.6679 57.63 99.5474 57.77 99.5273 57.52C99.5072 57.25 99.2663 57.19 99.0956 57.31C98.6138 57.65 98.0616 57.42 97.5496 57.49L97.1983 57.54C96.8067 57.59 96.4353 57.64 96.365 57.64H96.3048L95.8831 57.57C95.3009 57.48 94.9897 57.35 95.1804 57.29C95.3712 57.23 94.9796 56.91 94.9495 56.8C94.9194 56.69 94.6885 56.59 94.6684 56.81C94.6483 57.03 94.4576 57.58 94.2669 57.5L94.1363 57.4L93.9858 57.29C93.8352 57.06 93.5039 56.99 93.2328 57.13C92.9618 57.27 92.2289 57.37 92.1386 57.2C92.0482 57.03 91.6065 56.73 91.3957 56.95V57.66C91.0443 57.68 90.4821 57.63 90.1508 57.56C89.8195 57.49 88.8357 57.61 88.7654 57.58C88.6952 57.55 88.3639 57.46 88.1832 57.4C88.0025 57.34 87.2194 57.4 86.8379 57.51L86.587 57.43L86.346 57.35C86.1954 57.04 85.8943 56.87 85.6834 56.96C85.4726 57.05 85.0008 57.36 85.0209 57.44V57.58C84.9606 57.65 84.8602 57.7 84.79 57.68C84.7197 57.66 84.4587 57.47 84.3081 57.32C84.1575 57.17 83.5351 57.48 83.4347 57.49C83.3343 57.5 82.9227 57.44 82.7119 57.39L82.6918 57.31L82.6215 57.05C82.8926 57.05 83.3042 57.03 83.5351 57C83.766 56.97 83.8764 56.44 83.6455 56.4C83.4146 56.36 82.732 56.4 82.732 56.57L82.6316 56.73C82.5111 56.93 82.3103 57.23 82.1196 57.24C81.6076 57.27 82.0092 56.83 81.7983 56.67L81.7682 56.65C81.7682 56.65 81.5072 56.79 81.3064 57.03C81.1056 57.27 80.0114 57.26 79.67 57.28C79.3287 57.3 78.9573 56.73 78.8569 56.94C78.7565 57.15 79.4893 57.31 79.5295 57.34C79.5697 57.37 79.5998 57.56 79.4793 57.68H79.3588L79.2082 57.71C79.0275 57.64 78.6461 57.39 78.3549 57.15L78.2847 56.3C78.2847 56.19 77.9232 55.98 77.9032 55.99C77.0298 56.57 77.3209 55.87 77.2306 55.6V55.57C77.1302 55.51 77.0398 55.62 77.0197 55.82C76.9997 56.02 76.7888 56.39 76.5981 56.23C76.4073 56.07 76.1062 56.79 76.0359 56.93C75.9656 57.07 75.6645 57.5 75.544 57.52C75.4235 57.54 74.7509 57.5 74.2389 57.52L73.7771 57.54H73.6767C73.5763 57.59 73.486 57.56 73.4759 57.48C73.4659 57.4 73.486 57.22 73.4759 57.07C73.4659 56.92 73.8373 56.61 74.0381 56.64L74.1988 56.67L74.3493 56.7C74.4798 56.8 74.781 56.94 75.0119 57L75.2428 57.03C75.3532 57.04 75.544 56.99 75.5841 56.93L75.7046 56.68C75.805 56.4 76.0761 56.16 76.2869 56.16L76.3571 56.08C76.5178 55.89 76.5077 55.59 76.6985 55.44L77.0599 55.16C76.8491 54.92 76.578 54.71 76.4475 54.69C76.317 54.67 75.9154 54.83 75.9154 55.13C75.9154 55.43 75.6544 56.18 75.3532 56.19L75.1725 56.39C74.9517 56.64 74.7409 56.67 74.4096 56.44L74.2389 56.33L74.1686 56.38ZM77.4313 54.14C77.1804 54.06 76.9695 54.02 76.9495 54.05C76.9294 54.08 76.9996 54.25 77.1402 54.36C77.2807 54.47 78.0437 54.53 78.4453 54.37L78.8268 54.67C78.8268 54.67 78.9874 54.63 79.0376 54.58L79.1681 54.45C79.3388 54.25 79.2785 54.05 79.0275 54.01C78.7766 53.97 77.6823 54.22 77.4313 54.14ZM70.153 54.57C69.8117 54.68 69.641 54.9 69.7715 55.07C69.902 55.24 70.5245 54.89 70.675 54.81C70.8256 54.73 71.5484 54.67 71.8094 54.67C72.0705 54.67 72.8134 54.54 72.6929 54.37C72.5724 54.2 71.8697 54.35 71.699 54.4C71.5284 54.45 71.0465 54.37 70.7152 54.31L70.4241 54.44L70.143 54.57H70.153ZM245.275 26.65C245.556 26.74 245.676 26.65 245.546 26.46C245.415 26.27 244.963 25.56 244.743 25.19L244.331 25.66L244.03 26.01C243.698 25.89 243.598 25.84 243.819 25.9C244.04 25.96 244.993 26.56 245.275 26.65ZM128.671 54.69C128.329 54.69 127.998 54.77 127.938 54.85L127.958 54.89L128.058 55.07C127.958 55.25 127.988 55.45 128.119 55.52C128.249 55.59 128.731 55.35 128.982 55.29C129.233 55.23 129.032 54.68 128.681 54.68L128.671 54.69ZM249.551 26.37C249.371 26.09 249.27 26.09 249.34 26.37C249.411 26.65 250.224 26.95 250.465 26.98L250.485 26.7V26.57C250.696 26.31 250.465 26.29 249.973 26.53L249.802 26.47L249.551 26.38V26.37ZM67.9043 54.29C67.3421 54.43 67.0509 54.54 67.2618 54.54C67.4726 54.54 68.1151 54.89 68.2857 54.98C68.4564 55.07 68.9584 55.21 68.9584 55.05C68.9584 54.89 68.7275 54.57 68.4363 54.7L68.3761 54.65L67.9043 54.29ZM92.5703 55.32C92.4498 55.3 92.51 55.6 92.7108 55.99L92.9819 56.12L93.3131 56.28C93.6344 56.49 94.036 56.6 94.2066 56.54L94.2568 56.45L94.317 56.33C94.2869 56.14 93.9757 56.03 93.6143 56.07L93.4135 55.98L93.1927 55.88C93.0321 55.64 92.7008 55.35 92.5803 55.33L92.5703 55.32ZM174.007 55.27C174.178 55.2 174.218 55.05 174.088 54.94C173.957 54.83 173.596 54.53 173.525 54.44C173.455 54.35 173.054 54.45 173.134 54.69C173.214 54.93 173.837 55.34 174.007 55.27ZM84.4888 55.82C84.4386 55.54 84.4085 55.51 84.4286 55.75C84.4486 55.99 84.3583 56.66 84.5691 56.64C84.7799 56.62 84.539 56.1 84.4888 55.82ZM7.56943 37.38C7.78025 37.43 7.90072 37.31 7.83045 37.11H7.78025C7.38873 37.08 7.28834 36.91 7.32849 36.62L7.34857 36.48C7.28834 36.28 7.10763 36.34 6.95705 36.59C6.80646 36.84 7.35861 37.33 7.56943 37.37V37.38ZM4.09591 42.19C4.09591 42.08 3.94533 41.96 3.77466 41.92L3.63411 41.86C3.50361 41.81 3.45341 41.61 3.24259 41.79C3.08197 41.93 2.95146 42.02 3.21247 42.19C3.42329 42.33 3.02173 42.78 3.54376 42.75C3.73451 42.74 3.89513 42.42 4.05576 42.24L4.09591 42.19Z" fill="#FFE600"/>
<path d="M256.639 27.03C256.759 27.14 256.378 26.94 255.785 26.58L255.073 26.7C254.962 26.72 254.751 26.57 254.671 26.46L254.5 26.23C254.34 25.92 254.48 25.74 254.812 25.83H255.063L255.675 25.81C255.384 25.62 255.454 25.48 255.826 25.5L256.087 25.82L256.277 26.06C256.739 26.24 257.02 26.41 256.9 26.44C256.779 26.47 256.498 26.92 256.629 27.03H256.639Z" fill="#FFE600"/>
</g>
<defs>
<clipPath id="clip0_87_93">
<rect width="256.94" height="57.99" fill="white"/>
</clipPath>
</defs>
</svg>
