<svg width="225" height="27" viewBox="0 0 225 27" fill="none" xmlns="http://www.w3.org/2000/svg">
<g clip-path="url(#clip0_90_105)">
<mask id="mask0_90_105" style="mask-type:luminance" maskUnits="userSpaceOnUse" x="0" y="0" width="225" height="27">
<path d="M224.947 0H0V26.9953H224.947V0Z" fill="white"/>
</mask>
<g mask="url(#mask0_90_105)">
<path d="M64.9336 26.2458C64.6524 26.3157 64.3096 26.4693 64.1778 26.5857C64.0459 26.7021 63.3603 26.8091 63.4658 26.7346C63.5713 26.6602 63.9141 26.4321 63.9756 26.3808C64.0371 26.3296 63.6592 26.1993 63.5889 26.1155L63.4834 26.0783L63.2373 25.9852C63.0791 25.8595 62.9033 25.7152 62.8418 25.6686C62.7803 25.6221 62.4551 25.7757 62.3584 25.8548V25.9665C62.3935 26.0224 62.3232 26.1714 62.209 26.2924C62.0947 26.4134 62.0596 26.7812 62.0157 26.7858C61.9717 26.7905 61.8135 26.7858 61.7696 26.744C61.7256 26.7021 61.4707 26.5671 61.3564 26.5065C61.2422 26.446 61.7607 26.311 61.8223 26.2645C61.8838 26.2179 61.875 26.1388 61.6817 26.1993C61.4883 26.2598 60.917 26.0829 60.7939 26.0969C60.6709 26.1108 60.8115 26.3203 60.8555 26.3902L60.8731 26.4507L60.8907 26.5158C60.8907 26.581 60.6094 26.6183 60.2754 26.5903H60.0029L59.959 26.5996C59.915 26.744 59.8184 26.8464 59.7481 26.8231C59.6778 26.7998 59.2735 26.8091 59.0361 26.8464V26.8371L58.8868 26.7021C59.1416 26.6834 59.3174 26.6229 59.2822 26.5671C59.2471 26.5112 59.0098 26.3948 58.8603 26.474C58.711 26.5531 58.166 26.7533 57.9375 26.7533C57.709 26.7533 57.1025 26.744 57.1025 26.7346C57.1025 26.7253 57.2168 26.6927 57.375 26.6834C57.5332 26.6741 57.9638 26.581 57.9638 26.4926C57.9638 26.4041 58.5967 26.3017 58.7197 26.2877C58.8428 26.2738 59.1856 26.2086 59.2295 26.176L59.2119 26.1527C59.1856 26.1248 59.0801 26.0783 59.045 26.0829C58.4385 26.1667 57.8496 26.2691 57.1904 26.2598L56.751 26.2505C56.54 26.3948 56.2764 26.5391 56.1709 26.5671C56.0654 26.595 55.8282 26.446 55.7754 26.4227C55.7227 26.3995 55.4678 26.3436 55.3447 26.3157C55.2217 26.2877 54.9493 26.1993 55.0107 26.1714C55.0723 26.1434 55.336 26.0829 55.4326 26.1015L55.459 26.1341L55.6084 26.3017C55.9424 26.2738 56.2763 26.2319 56.3467 26.2133C56.417 26.1946 56.5489 26.0643 56.54 26.0038C56.5313 25.9433 56.0654 25.8362 55.8985 25.8222V25.799C55.749 25.4591 55.3271 25.65 55.2481 25.7664C55.1075 25.9758 54.6504 25.9945 54.3692 26.1062L54.1231 26.2086C53.956 26.339 53.7891 26.3902 53.7539 26.325L53.7364 26.2645L53.7012 26.1527C53.4024 26.0922 52.9629 25.9852 52.7168 25.92L52.6728 25.8408C52.5674 25.6453 52.2774 25.636 51.917 25.636C51.7588 25.636 51.5742 25.5476 51.4424 25.5662C51.3193 25.5848 51.2578 25.6826 51.1524 25.7431L51.1172 25.7617C50.9766 25.771 50.9766 25.8083 51.1084 25.8455C51.2403 25.8827 51.4864 26.0177 51.372 26.0643C51.2578 26.1108 50.4317 25.934 50.5283 25.8781L50.5723 25.8222C50.7129 25.6546 50.5196 25.5522 50.124 25.6221C49.8076 25.6733 49.7197 25.5569 49.5263 25.5476L49.2802 25.5383C48.9903 25.5476 48.4365 25.5988 48.0586 25.6546L47.8477 25.6034L47.584 25.5383C47.3467 25.5522 46.9864 25.5895 46.7842 25.6221C46.5821 25.6546 45.8789 25.5522 45.7207 25.5336C45.5625 25.515 45.167 25.5476 44.9736 25.5383C44.7802 25.529 44.1738 25.5103 43.9981 25.5848C43.8223 25.6593 43.1279 25.7384 42.8291 25.5941L42.3896 25.65L42.0821 25.6919C41.7656 25.6733 41.2646 25.6593 40.957 25.6593C40.6494 25.6593 39.8145 25.7571 39.4629 25.8036C39.1113 25.8502 38.0127 25.7384 37.582 25.771L37.1513 25.664L36.8349 25.5848C36.2724 25.6546 35.7188 25.7198 35.6133 25.7384C35.5078 25.7571 35.0332 25.7384 34.7607 25.7384C34.4883 25.7384 33.7763 25.799 33.7412 25.7664C33.706 25.7338 33.5566 25.6686 33.4599 25.7058C33.3633 25.7431 33.0205 25.7943 32.8974 25.7384L32.7744 25.6965L32.6865 25.6686C32.5723 25.6546 32.4228 25.6686 32.3525 25.7012C32.2822 25.7338 32.0537 25.7896 31.9746 25.7571C31.8955 25.7245 31.5615 25.785 31.4912 25.8083C31.4209 25.8315 31.043 25.8641 30.6738 25.8967L30.3486 25.8408C30.1816 25.8129 30.0146 25.7757 29.8477 25.7384C29.6367 25.6919 29.4521 25.5476 29.1621 25.6965C29.1357 25.7105 28.9688 25.6965 28.9248 25.6686C28.6084 25.515 28.459 25.4684 28.1337 25.7058L27.9141 25.8641C27.7559 25.6733 27.5713 25.5569 27.5009 25.5988C27.4306 25.6407 27.1758 25.7384 27.123 25.6872C27.0703 25.636 26.8154 25.515 26.6748 25.4964C26.5341 25.4777 26.1826 25.65 26.0947 25.6919C26.0068 25.7338 25.7168 25.6593 25.6728 25.6965C25.6289 25.7338 25.541 25.7477 25.5673 25.6546C25.5937 25.5615 25.0488 25.7198 25.0137 25.7245H24.9785C24.6181 25.7803 24.6094 25.4871 24.1611 25.5848L23.9238 25.636C23.5898 25.636 23.2383 25.6267 23.1416 25.6174C23.0449 25.6081 22.6934 25.6453 22.4648 25.65C22.2363 25.6546 21.5684 25.5662 21.4453 25.65L21.2959 25.6919L21.208 25.7152C21.041 25.6965 20.7598 25.6267 20.5927 25.5662C20.4258 25.5057 19.5293 25.664 19.4414 25.6081C19.3535 25.5522 19.0019 25.4638 18.8965 25.5196C18.791 25.5755 18.3867 25.4591 18.3252 25.4871L18.2724 25.515C18.2109 25.5476 18.1406 25.6174 18.0879 25.6127C17.8945 25.6034 17.5517 25.6826 17.5781 25.5103V25.4638C17.8154 25.4079 17.9209 25.3427 17.8154 25.3148C17.7099 25.2869 17.3672 25.2636 17.288 25.3148C17.209 25.366 16.8486 25.501 16.8574 25.3707V25.3055C16.8398 25.2776 16.7871 25.2217 16.7695 25.2217L16.5762 25.2357C16.3652 25.2543 16.2334 25.1938 16.2861 25.096L15.9433 25.1379L15.8818 25.1472C15.8203 25.1798 15.6005 25.1752 15.3808 25.1379C15.1611 25.1007 14.3262 25.1007 14.0801 25.1053C13.834 25.11 13.0693 24.9517 12.8672 24.9657C12.665 24.9796 12.1377 25.0262 12.0586 24.9238C11.9794 24.8214 11.0566 24.7608 10.9775 24.7702V24.7608L10.538 24.4815C9.78224 24.4396 9.09665 24.3977 9.02635 24.3838C8.95605 24.3698 8.61326 24.3791 8.3408 24.3698C8.06834 24.3605 6.96092 24.3931 6.46873 24.4117L6.37205 24.1464C6.36326 24.1184 6.1699 24.0672 6.12595 24.0765L5.8447 24.1464C5.56345 24.0905 5.27341 24.0114 5.19431 23.9648C5.11521 23.9183 4.63181 23.8345 4.49119 23.8019C4.35056 23.7693 3.91111 23.7088 3.84958 23.7181C3.78806 23.7274 3.58591 23.6995 3.54197 23.6296L3.45408 23.5831C3.40134 23.5598 3.22556 23.5552 3.14646 23.5738C2.83005 23.6483 2.47849 23.6576 2.25876 23.6669C1.77536 23.6808 2.01267 23.5924 2.03904 23.49C2.05661 23.4388 1.749 23.3736 2.13572 23.3503C2.3115 23.341 2.48728 23.3038 2.65427 23.2712C2.83884 23.2293 2.80368 23.1874 2.66306 23.1269L2.51365 23.0571C2.66306 22.9965 2.97068 22.8708 3.18161 22.7824C3.39255 22.694 3.65622 22.3448 3.41892 22.3262L3.24314 22.3355L3.04099 22.3448C2.82126 22.3821 2.49607 22.3727 2.30271 22.3262C2.10935 22.2796 2.15329 21.8746 2.23239 21.7117C2.3115 21.5488 2.4697 21.1205 2.44333 21.1158C2.41697 21.1112 2.17966 21.181 2.01267 21.2741L1.78415 21.1205L1.66989 21.0414C1.71384 20.9669 1.84568 20.8365 1.96872 20.7481L1.75779 20.7062L1.64353 20.6829C1.37986 20.7434 1.22165 20.7295 1.29196 20.6503L1.30954 20.5852L1.35349 20.399C1.16892 20.2174 0.993138 19.9986 0.975558 19.9195C0.957979 19.8403 1.19528 19.5703 1.54685 19.4958C1.89841 19.4214 1.89841 18.9977 1.64353 19.0303L1.49411 19.0862L1.33591 19.1421C1.15134 19.1933 0.799775 19.1095 0.544892 18.9465L0.676728 18.8115C0.720674 18.7696 0.711885 18.7138 0.764619 18.6765C0.896458 18.5788 1.04587 18.4857 1.17771 18.3926C1.33591 18.2855 1.51169 18.5322 1.69626 18.3833L1.749 18.3414C1.96872 18.3227 1.94236 18.2762 1.69626 18.239V18.2017C1.66989 18.1365 1.78415 18.0574 1.88962 17.9969C1.94236 17.9643 2.10056 17.969 2.18845 17.941C2.39939 17.8758 2.46091 17.685 2.25876 17.6571C1.99509 17.6198 1.92478 17.5779 1.8281 17.4755L1.77536 17.4243C1.40622 17.4057 1.44138 17.3358 1.85446 17.2707C2.26755 17.2055 3.37497 16.9262 3.89353 17.0752L4.51755 17.0286C4.6406 17.0193 4.90427 17.1403 4.95701 17.2195L5.08884 17.415C5.38767 17.3591 5.54587 17.2334 5.44919 17.1403L5.46677 17.0612C5.51951 16.8191 5.61619 16.5771 5.73923 16.3396L5.7656 16.2884C5.93259 16.2465 6.14353 16.1953 6.23142 16.1767C6.31931 16.1581 6.54783 16.0138 6.70603 16.0138C6.86424 16.0138 7.33885 15.9765 7.40037 15.9626C7.46189 15.9486 7.64646 15.8602 7.71678 15.8276C7.78709 15.795 8.11228 15.9253 8.16502 15.944C8.21775 15.9626 8.49021 15.9905 8.51658 15.8974C8.54295 15.8043 8.75389 15.6367 8.95605 15.6972C9.1582 15.7577 9.69434 15.6274 9.65915 15.6088C9.62404 15.5902 9.6152 15.511 9.72945 15.4784L9.79975 15.4924C10.0722 15.5436 10.3974 15.7391 10.4853 15.4272C10.5732 15.4179 10.7841 15.4365 10.9512 15.4645C11.1181 15.4924 11.6719 15.39 11.8301 15.3853C11.9883 15.3807 12.4892 15.404 12.7353 15.3993C12.9814 15.3946 13.3945 15.2038 13.2187 15.1665C13.043 15.1293 12.665 14.9245 12.7617 14.7941C12.8584 14.6638 11.8916 14.296 11.9795 14.2821C12.0673 14.2681 12.1552 14.1564 11.9004 14.0679V13.9934L11.918 13.8258C11.663 13.8258 11.3642 13.7746 11.25 13.7234L11.1709 13.6676L10.9951 13.5419C11.1094 13.3976 11.1181 13.1602 11.0039 13.0112L10.9336 12.8715L10.916 12.8296C10.9512 12.7738 11.1972 12.7831 11.4521 12.8529C11.707 12.9227 12.498 12.7971 12.5244 12.7738C12.5508 12.7505 12.4629 12.6574 12.3047 12.6202L12.2255 12.6388L12.0498 12.6853C11.8213 12.7458 11.6719 12.7458 11.7158 12.6853L11.7509 12.6295L11.7861 12.5736C11.8213 12.5084 11.7949 12.4665 11.7334 12.4758C11.6719 12.4852 11.3994 12.4991 11.2676 12.4805C11.1357 12.4619 11.3994 12.1826 11.4961 12.0429L11.8564 12.0103C11.9267 12.0057 12.0586 11.9871 12.0586 11.9824L12.0058 11.6658C12.5771 11.5448 12.9199 11.4098 12.7705 11.3679C12.6211 11.326 12.041 11.3819 11.9531 11.3679C11.8652 11.354 11.1621 11.2469 10.6347 11.1445L10.0722 11.191C9.81735 11.2143 9.791 11.1445 9.7207 11.0514L9.62404 10.9071C9.46584 10.9955 9.14935 11.0421 8.92085 11.0095C8.69236 10.9769 7.98045 10.8279 7.83982 10.7721L7.8574 10.7627L8.05076 10.6464C7.92771 10.53 7.7783 10.409 7.72556 10.3857C7.67283 10.3624 7.47947 10.3205 7.42674 10.3577L7.35642 10.381L7.25974 10.4183C7.1367 10.4508 6.88181 10.5021 6.69724 10.5346C6.51267 10.5672 5.9238 10.6231 5.83591 10.5812C5.74802 10.5393 5.55466 10.3671 5.64255 10.2926C5.73045 10.2181 6.43357 10.3391 6.71482 10.3438L6.75877 10.2646C6.80271 10.1808 6.6533 9.9993 6.5742 9.99464L5.34373 9.97137C5.50193 9.60361 5.49314 9.29171 5.31736 9.27775C5.14158 9.26378 4.83396 9.43602 4.79001 9.4174C4.74607 9.39878 4.61423 9.33826 4.59666 9.33361C4.57908 9.32895 4.4824 9.24516 4.41208 9.17068C4.34177 9.09619 4.58787 8.8355 4.66697 8.77033L4.69334 8.70981L4.7197 8.65395C4.68455 8.58878 4.5615 8.54223 4.44724 8.55154L4.34177 8.56085L4.25388 8.57016C4.16599 8.58413 4.06052 8.56085 4.02537 8.51895L4.06052 8.50033L4.22751 8.39326C4.50876 8.23499 4.47361 8.15119 4.1572 8.21171H3.97263L3.62986 8.23033C3.23435 8.22568 2.89158 8.16516 2.86521 8.09999V8.05344L2.94431 7.56464C2.4697 7.36447 2.02146 7.18292 1.94236 7.1643L1.91599 7.14102L1.81931 7.03861C1.85446 6.91757 1.76657 6.71275 1.62595 6.58706L1.4238 6.54981C0.922819 6.46137 0.931609 6.30309 0.957979 6.12154V6.05171C0.957979 5.92602 0.703095 5.87481 0.395478 5.93533L0.597627 5.7724C0.790986 5.61878 0.448212 5.62344 0.342743 5.56292C0.316376 5.5443 0.123017 5.75844 0.0263366 5.56292L0.00875854 5.53499C0.166962 5.48844 0.325165 5.44654 0.360322 5.43723C0.395478 5.42792 0.298798 5.26964 0.070282 5.11137L0.149384 4.92981C0.166962 4.88326 0.246064 4.83671 0.228486 4.79481V4.74361C0.149384 4.6924 0.166962 4.65516 0.254853 4.66447C0.342744 4.67378 0.747041 4.64585 0.914029 4.57602C1.08103 4.50619 0.834932 4.23619 0.957979 4.21292L0.984348 4.22688C1.30075 4.34792 1.57321 4.37119 1.84568 4.19895L2.08298 4.04999C2.33786 4.1524 2.55759 4.1943 2.58396 4.13844C2.61033 4.08257 3.00583 3.89171 3.40134 3.83585L3.6738 4.08723L3.81443 4.21757C4.20115 4.07326 4.45603 3.94292 4.37693 3.92895C4.29783 3.91499 4.10447 3.85447 4.13083 3.81723H4.14841C4.33298 3.81723 4.52634 3.83119 4.71091 3.8405H4.7988C4.88669 3.85912 5.00095 3.83585 5.0449 3.7893C5.08884 3.74275 5.40525 3.76602 5.44041 3.73809C5.47556 3.71016 5.65134 3.61706 5.71287 3.67292C5.77439 3.72878 6.12595 3.79395 6.29295 3.64499L6.43357 3.57516L6.51267 3.53792C6.67088 3.52861 6.9697 3.55654 7.17185 3.59844C7.374 3.64033 8.12107 3.54257 8.2617 3.58912C8.40232 3.63568 8.84179 3.74275 9.00875 3.60775L9.14935 3.51464L9.29004 3.42154C9.5449 3.41223 9.87005 3.4355 10.0107 3.47275C10.1513 3.50999 10.4326 3.32378 10.6084 3.32844C10.7841 3.33309 11.2587 3.3843 11.3203 3.40757C11.3818 3.43085 11.6806 3.46809 11.7509 3.39361C11.8213 3.31912 12.1465 3.12826 12.3134 3.15619C12.4805 3.18413 12.8759 3.14223 12.999 3.11895C13.122 3.09568 13.4912 3.17016 13.5615 3.14688V3.12361L13.6055 3.03516C13.7548 3.04912 14.1591 3.11895 14.4931 3.19809L14.5371 2.95602V2.9374C14.6162 2.91878 14.9501 2.87223 15.2841 2.83499C15.6181 2.79775 16.7519 2.88619 17.042 2.88154L17.2529 2.90947C17.4726 2.9374 17.6133 3.06775 17.6308 2.85361C17.6308 2.83033 17.8857 2.78844 17.8945 2.79309C18.1582 2.96068 18.5537 2.82568 18.6328 2.77912C18.8701 2.63947 19.2129 2.83033 19.4677 2.69533L19.5644 2.64412C19.9775 2.7093 20.3642 2.76516 20.4258 2.77447C20.4873 2.78378 20.8125 2.69533 21.041 2.60223C21.2695 2.50913 22.0517 2.67206 22.0957 2.66275V2.65344L22.0781 2.40206C22.456 2.45326 23.0273 2.42999 23.3437 2.34619L23.6162 2.53706L23.748 2.63016C24.0293 2.56499 24.4072 2.48119 24.5742 2.4393L24.7588 2.42068H24.8203C24.8818 2.40671 25.0752 2.40206 25.2685 2.41137C25.4619 2.42068 26.1123 2.39275 26.3056 2.41137C26.499 2.42999 26.9912 2.32292 27.0352 2.35085C27.0791 2.37878 27.29 2.44395 27.334 2.40671L27.3779 2.37878L27.4306 2.34619C27.4922 2.31361 27.5537 2.30895 27.5801 2.33223C27.6064 2.3555 27.7031 2.4393 27.747 2.45326H27.791L28.1426 2.40206C28.538 2.36481 28.9248 2.32292 28.9951 2.3043L29.0478 2.28102L29.4082 2.10412C29.6806 2.26706 29.9531 2.36016 30.0234 2.31361C30.0938 2.26706 30.3223 2.15999 30.3926 2.18792C30.4629 2.21585 30.6123 2.11344 30.6211 1.91792L31.1309 2.16464L31.2188 2.20654C31.4824 2.18326 31.8252 2.1693 31.9834 2.17395C32.1416 2.17861 32.502 2.2205 32.5107 2.15999C32.5195 2.09947 33.0556 2.09016 33.1348 2.13206C33.2138 2.17395 33.3633 2.09947 33.3457 1.91792L33.9082 2.14602C33.9609 2.1693 34.2774 2.08085 34.4619 2.03895L34.5586 2.01568C34.6552 1.98775 35.0684 1.91792 35.4638 1.86206C35.8594 1.80619 36.9052 2.06223 36.9844 2.06223C37.0634 2.06223 37.5645 2.02033 37.9072 1.98775C38.25 1.95516 39.5068 1.97378 39.7617 1.98775L39.8672 1.94585L40.1309 1.84344C40.3594 1.8993 40.6845 1.95516 40.8516 1.96447H41.291C41.5723 1.90395 41.9326 1.83412 42.0821 1.8155C42.2314 1.79688 42.961 1.7643 43.3564 1.7643H43.7168L43.8223 1.75499C43.9365 1.73171 44.042 1.74568 44.0595 1.79223C44.0771 1.83878 44.499 1.81085 44.5606 1.77826C44.622 1.74568 44.877 1.66654 44.9736 1.70844C45.0703 1.75033 45.3955 1.8155 45.5274 1.78292C45.6592 1.75033 46.2392 1.65257 46.5029 1.64326L46.5908 1.70378C46.7842 1.83412 47.0127 1.57344 47.2236 1.74102L47.3115 1.81085C47.6455 1.73637 47.997 1.69912 48.0849 1.73637C48.1728 1.77361 48.4629 1.84344 48.4892 1.81085C48.5156 1.77826 48.6387 1.69912 48.7002 1.71309C48.7617 1.72706 48.9638 1.71309 49.0078 1.65723C49.0517 1.60137 49.8427 1.61999 50.2998 1.57344L50.8095 1.64326C51.2227 1.69912 51.7763 1.7224 52.2598 1.57344L52.497 1.49895C52.9453 1.53619 53.3496 1.59206 53.4111 1.62464C53.4727 1.65723 53.7364 1.66654 53.8681 1.56878C54 1.47102 54.624 1.63861 54.668 1.60137C54.7119 1.56412 54.8877 1.47102 54.9141 1.53619C54.9404 1.60137 55.081 1.67585 55.1778 1.5874C55.2744 1.49895 56.0127 1.6293 56.3115 1.5874L56.6719 1.61533L57.1465 1.65257C57.7178 1.55481 58.2099 1.49895 58.2539 1.53619C58.2978 1.57344 58.4473 1.64326 58.4912 1.60602C58.5352 1.56878 58.7373 1.46171 58.8516 1.45706L58.8955 1.47568L59.2295 1.61999C59.6778 1.59671 60.2842 1.5874 60.5743 1.60137C60.8642 1.61533 61.7871 1.5455 62.0068 1.6293L62.2618 1.47568C62.3056 1.44775 62.6221 1.52223 62.8067 1.51757L63.3603 1.50826C63.9668 1.48964 64.8193 1.43844 65.2412 1.40119L65.5664 1.56412L65.6279 1.59671C65.8389 1.57809 66.1553 1.56412 66.3399 1.56412C66.5244 1.56412 66.9551 1.61068 66.9814 1.55947C67.0079 1.50826 67.5879 1.53619 67.79 1.64326L68.1064 1.50826L68.2119 1.46637C68.502 1.4943 68.836 1.52223 68.9678 1.53154C69.0997 1.54085 69.5743 1.56878 69.7412 1.56878H69.8994C70.0225 1.56878 70.1455 1.57809 70.251 1.56878C70.374 1.55481 70.4795 1.51292 70.6025 1.49895H70.6729C70.7696 1.51292 70.9629 1.51292 71.0947 1.48964C71.2266 1.46637 71.6485 1.54085 71.8594 1.61533V1.41981C71.9825 1.41981 72.4395 1.47568 72.8614 1.55016L73.2568 1.55947H73.5645C73.9072 1.4943 74.2588 1.41516 74.3379 1.40119C74.417 1.38723 74.6982 1.47102 74.8213 1.58275L75.1993 1.52223C75.3926 1.48964 75.7442 1.46171 75.8145 1.49895C76.1221 1.66654 76.2188 1.39188 76.5001 1.46171L76.7461 1.52223C77.0977 1.53154 77.5459 1.56412 77.7393 1.59206L77.8008 1.56412L78.1787 1.40119C78.583 1.48033 78.9697 1.52223 79.0489 1.48964C79.1279 1.45706 79.4268 1.39654 79.5059 1.44775C79.585 1.49895 79.8223 1.64326 79.8399 1.63861C79.8575 1.63395 80.0947 1.58275 80.3057 1.53619C80.5166 1.48964 81.4219 1.48033 81.7119 1.49895C82.002 1.51757 82.7666 1.48033 82.9951 1.52223C83.2236 1.56412 83.7861 1.40585 83.9883 1.46171L84.5333 1.13585C85.254 1.27085 85.9834 1.38257 86.1592 1.38257C86.335 1.38257 86.669 1.34999 86.6426 1.44309C86.6162 1.53619 87.3106 1.3593 87.4864 1.32206C87.6624 1.28481 88.0485 1.31275 88.1807 1.32206C88.3129 1.33137 88.6465 1.28947 88.6815 1.32206C88.7165 1.35464 88.875 1.43378 88.9363 1.39654C88.9984 1.3593 89.402 1.26154 89.7102 1.26154L89.965 1.32671L90.7205 1.44775L90.8965 1.39188C91.125 1.3174 91.3447 1.28016 91.3798 1.30809C91.4148 1.33602 91.723 1.44309 91.9164 1.49895L92.32 1.32671L92.3647 1.30809C92.461 1.30809 92.637 1.34068 92.7508 1.37326C92.8655 1.40585 93.5597 1.39654 93.9817 1.31275L94.0167 1.29878L94.1752 1.2243C94.3774 1.26154 94.4912 1.41516 94.43 1.56412L94.9482 1.41981L95.344 1.30809C95.3177 1.44775 95.3265 1.48033 95.3615 1.38257C95.3965 1.28481 95.9682 1.43378 95.9945 1.42912C96.0207 1.42447 96.2755 1.40585 96.4865 1.38257C96.6975 1.3593 97.488 1.47102 97.7078 1.49895C97.9275 1.52688 98.4467 1.39188 98.5255 1.42912C98.6043 1.46637 98.824 1.55481 98.8415 1.55481C98.859 1.55481 98.965 1.52223 99.0613 1.48033C99.1585 1.43844 99.5717 1.39654 99.7293 1.42447H99.8877C99.9753 1.43378 100.143 1.3593 100.169 1.36861L100.432 1.47568C100.705 1.41981 101.206 1.42447 101.54 1.47568L101.848 1.52223L101.971 1.54085C102.129 1.54085 102.322 1.51292 102.419 1.48033C102.516 1.44775 102.893 1.43844 103.017 1.39654C103.139 1.35464 103.904 1.44309 104.274 1.45706L104.625 1.46637L104.924 1.47568C105.24 1.51757 105.539 1.53154 105.6 1.49895C105.662 1.46637 106.022 1.40585 106.268 1.42912L106.453 1.47102C106.655 1.51292 106.814 1.64792 106.831 1.42912C106.831 1.42447 106.981 1.4105 107.051 1.41516C107.508 1.42912 107.982 1.48499 108.422 1.45706L108.764 1.43378C109.029 1.48964 109.31 1.53619 109.389 1.54085C109.468 1.5455 109.793 1.51292 109.986 1.48964C110.18 1.46637 111.314 1.50826 111.63 1.55481C111.947 1.60137 112.826 1.36861 113.027 1.37326C113.229 1.37792 113.986 1.33137 114.24 1.27085C114.495 1.21033 115.093 1.45706 115.163 1.4524C115.233 1.44775 115.611 1.32671 115.779 1.41981L115.945 1.43844C116.121 1.45706 116.367 1.35464 116.525 1.37792L116.85 1.42447C117.026 1.33602 117.272 1.27085 117.404 1.2755L117.483 1.30344L117.633 1.34999C117.774 1.41516 117.958 1.44309 118.037 1.40585C118.116 1.36861 118.345 1.32671 118.362 1.38257C118.38 1.43844 118.881 1.44775 118.969 1.40585C119.057 1.36395 119.417 1.30344 119.496 1.35464C119.576 1.40585 119.83 1.5455 119.883 1.5455L119.9 1.52688C120.155 1.29412 120.533 1.48964 120.841 1.47568H120.99C121.21 1.43378 121.474 1.41516 121.57 1.42447C121.667 1.43378 121.939 1.44775 122.107 1.48033C122.274 1.51292 123.029 1.41516 123.346 1.45706L123.697 1.41981C123.891 1.39654 124.163 1.48964 124.339 1.46171L124.655 1.41516C124.963 1.44309 125.447 1.48033 125.719 1.48964L125.974 1.47102L126.422 1.43378C126.923 1.41516 127.406 1.39654 127.486 1.39188C127.564 1.38723 127.828 1.47568 127.96 1.55016C128.092 1.62464 128.646 1.50826 128.733 1.54085C128.822 1.57344 129.12 1.64326 129.182 1.61068V1.5874C129.138 1.51757 128.997 1.39654 129.024 1.39188L129.314 1.32671C129.375 1.43378 129.498 1.52688 129.577 1.54085C129.656 1.55481 129.876 1.51757 129.955 1.48499C130.034 1.4524 130.315 1.39654 130.404 1.43378C130.491 1.47102 130.746 1.43844 130.764 1.28481L131.221 1.38723H131.238C131.168 1.47102 131.353 1.51292 131.651 1.48964C131.951 1.46637 132.671 1.64792 132.732 1.61999V1.41981C132.996 1.4524 133.277 1.50361 133.348 1.53619C133.418 1.56878 133.646 1.63395 133.673 1.57809C133.699 1.52223 133.901 1.43378 134.086 1.50361C134.271 1.57344 135.053 1.46637 135.264 1.46171C135.475 1.45706 136.029 1.5874 136.072 1.6293C136.116 1.67119 136.688 1.59206 136.767 1.5455C136.846 1.49895 137.259 1.45706 137.391 1.61999L137.795 1.56878C138.225 1.51757 137.531 1.39654 137.839 1.37326L138.155 1.35464C138.525 1.35464 139.395 1.36395 140.089 1.36395H140.722C141.038 1.36395 141.354 1.3593 141.671 1.36395H141.935C142.216 1.39188 142.664 1.33602 142.936 1.23826L143.218 1.4105L143.385 1.51292C143.412 1.41981 143.561 1.28481 143.71 1.21964L143.842 1.29412L144.053 1.4105C144.307 1.37326 144.686 1.32671 144.888 1.30344C145.09 1.28016 145.758 1.21964 145.916 1.17309C146.074 1.12654 146.672 1.26154 146.874 1.26619C147.076 1.27085 147.701 1.3174 147.806 1.28947C147.912 1.26154 148.342 1.20102 148.623 1.16844L148.834 1.11257L149.229 1.0055C149.396 1.13585 149.555 1.19637 149.572 1.14516C149.59 1.09395 149.836 0.963608 150.073 1.0055C150.311 1.0474 151.093 1.15447 151.33 1.15447C151.568 1.15447 152.402 0.968263 152.86 0.963608L153.237 0.972918C153.624 0.982228 153.985 0.944987 154.353 0.949642H154.608C154.81 0.898435 155.171 0.88447 155.408 0.921711L155.522 0.889125C155.892 0.791366 155.997 0.833263 156.041 1.00085V1.01481C156.252 1.01481 156.727 0.917056 157.096 0.791366L157.65 0.986883L157.702 1.0055C157.764 1.02878 157.817 0.977573 157.826 0.889125C157.834 0.800677 158.546 0.90309 158.713 0.926366C158.88 0.949642 159.478 0.926366 159.654 0.90309C159.829 0.879815 160.383 0.814642 160.524 0.833263C160.664 0.851883 161.218 0.754125 161.534 0.772746C161.85 0.791366 162.774 0.75878 162.905 0.786711C163.037 0.814642 163.318 0.926366 163.345 0.89378C163.371 0.861194 163.547 0.800677 163.608 0.90309L163.705 0.921711L163.863 0.949642C164.074 0.935676 164.54 0.917056 164.9 0.90309L165.111 0.833263L165.392 0.740159C165.595 0.791366 165.841 0.837918 165.929 0.837918C166.017 0.837918 166.263 0.786711 166.342 0.763435C166.421 0.740159 166.931 0.800677 167.212 0.833263C167.494 0.865849 168.293 0.754125 168.363 0.740159C168.434 0.726194 168.794 0.935677 168.82 0.875159C168.847 0.814642 169.093 0.679642 169.339 0.679642H169.55L169.831 0.693608C170.121 0.75878 170.543 0.796021 170.754 0.777401C170.965 0.75878 171.624 0.661021 171.791 0.642401C171.958 0.62378 172.371 0.712228 172.397 0.656366C172.424 0.600504 172.547 0.456194 172.617 0.460849L172.653 0.474814C172.934 0.595849 173.171 0.730849 173.646 0.591194L173.787 0.549297C174.059 0.577228 174.384 0.591194 174.507 0.581883C174.63 0.572573 175.025 0.637746 175.113 0.642401L175.184 0.63309L175.474 0.600504C175.79 0.563263 176.247 0.549297 176.494 0.567918L176.722 0.577228L176.897 0.586539C177.135 0.493435 177.399 0.460849 177.478 0.512056C177.557 0.563263 177.82 0.63309 177.935 0.581883C178.049 0.530677 178.524 0.423608 178.646 0.48878C178.77 0.553952 179.201 0.609815 179.569 0.62378L179.869 0.647056L180.158 0.670332C180.369 0.62378 180.729 0.581883 180.94 0.577228L181.125 0.530677L181.213 0.507401C181.353 0.521366 181.819 0.47947 182.25 0.418953L182.672 0.567918L182.892 0.647056C183.322 0.63309 183.692 0.563263 183.709 0.484125C183.727 0.404987 184.254 0.460849 184.386 0.48878C184.518 0.516711 185.037 0.539987 185.212 0.553952C185.388 0.567918 185.818 0.460849 185.853 0.470159C185.889 0.47947 186.047 0.539987 186.135 0.577228C186.223 0.61447 186.9 0.688952 186.803 0.637746C186.706 0.586539 186.724 0.526021 187.022 0.595849L187.348 0.432918C187.488 0.363091 187.955 0.414298 188.271 0.423608H188.499C188.675 0.507401 188.869 0.572573 188.921 0.577228C188.974 0.581883 189.413 0.586539 189.844 0.605159L190.143 0.432918L190.186 0.404987C190.608 0.47947 190.908 0.502746 190.854 0.451539C190.802 0.400332 190.732 0.269987 190.767 0.251367C190.802 0.232746 191.11 0.20016 191.391 0.181539C191.672 0.162918 192.446 0.288608 192.568 0.251367L192.63 0.265332L192.903 0.330505C193.228 0.321194 193.623 0.349125 193.772 0.391022C193.922 0.432918 194.485 0.195505 194.836 0.0837804L195.179 0.148953L195.574 0.223436C195.811 0.125677 196.031 0.0465391 196.067 0.0418837C196.102 0.0372286 196.242 0.0186079 196.357 -0.0186335C196.471 -0.0558747 196.928 0.0465391 197.051 0.0791253C197.174 0.111711 197.649 0.176884 197.552 0.0791253C197.455 -0.0186335 198 0.0651598 198.106 0.0558494C198.211 0.0465391 198.607 0.0651598 198.756 0.125677C198.905 0.186194 199.486 0.176884 199.451 0.148953C199.415 0.121022 199.916 0.0651597 200.663 0.0744701L200.935 0.162918L201.446 0.330505C201.49 0.153608 201.709 0.097746 201.938 0.204815L202.412 0.130332C202.913 0.0511942 203.529 0.0837804 204.091 0.20016C204.302 0.242056 204.61 0.33516 204.978 0.228091C205.146 0.181539 205.594 0.288608 205.893 0.349125C206.033 0.381711 205.533 0.451539 205.857 0.512056C205.946 0.530677 206.121 0.437574 206.253 0.446884C206.447 0.456194 206.754 0.484125 206.807 0.544642L206.991 0.730849C207.396 0.786711 207.932 0.865849 208.196 0.907745C208.459 0.949642 209.294 1.02412 209.452 1.01016C209.611 0.996194 210.085 1.07068 210.199 1.0474C210.314 1.02412 210.542 1.01016 210.516 1.09395C210.49 1.17775 211.069 1.05671 211.175 1.04275C211.28 1.02878 211.676 1.04275 211.992 1.04275C212.309 1.04275 213.1 1.2243 213.179 1.21033C213.258 1.19637 213.539 1.18706 213.548 1.23361C213.557 1.28016 213.838 1.41516 214.163 1.38257C214.488 1.34999 215.482 1.54085 215.86 1.59206L215.982 1.80154C216.044 1.90395 216.607 1.91792 216.712 2.12275L216.765 2.21585C217.125 2.28568 217.486 2.3555 217.564 2.36947C217.644 2.38344 217.775 2.48119 217.697 2.55568L218.021 2.6255C217.899 2.73723 217.802 2.91412 217.81 3.02119L217.846 3.11895L217.916 3.32844C218.013 3.55654 218.154 3.7474 218.232 3.75671H218.391C218.478 3.76137 218.558 3.77999 218.567 3.80326C218.576 3.82654 218.4 3.89171 218.224 3.93361L218.083 3.98016C218.083 3.98016 218.083 4.04533 218.11 4.07326C218.119 4.08723 218.215 4.08723 218.268 4.08257C218.303 4.08257 218.321 4.04999 218.356 4.04999L218.54 4.03602C218.742 4.02206 218.909 4.04068 218.892 4.07326C218.874 4.10585 219.041 4.26413 219.27 4.35257L219.419 4.44568L219.516 4.50619C219.533 4.62723 219.322 4.68309 219.059 4.63188C218.795 4.58068 218.136 4.62257 218.356 4.87861C218.576 5.13464 218.619 5.83757 218.4 5.87016C218.18 5.90275 217.582 6.00981 217.662 6.01913C217.74 6.02844 218.03 6.11688 218.232 6.18671L218.311 6.26585C218.531 6.50326 218.672 6.14016 218.9 6.26119L219.033 6.33102C219.305 6.38223 219.446 6.4893 219.357 6.56378C219.27 6.63826 219.542 7.0293 219.595 7.2155L219.419 7.38775C219.226 7.57395 219.586 7.88585 220.034 7.90447L220.412 7.91844C220.834 7.95568 221.019 7.99292 220.817 7.99757C220.615 8.00223 220.043 8.07206 220.043 8.13723C220.043 8.2024 220.245 8.39792 220.5 8.37464L220.737 8.36068L220.869 8.35137C221.01 8.35137 221.248 8.36533 221.388 8.3793C221.529 8.39326 222.232 8.36068 222.565 8.36533C222.9 8.36999 223.295 8.75637 223.251 8.78895L223.076 8.77499C222.724 8.75171 222.539 8.87275 222.68 8.99844C222.768 9.08688 222.856 9.19395 223.022 9.2405L223.383 9.33826C223.409 9.50585 223.498 9.60826 223.594 9.56171L223.69 9.5524C223.787 9.54309 223.936 9.5524 223.998 9.58033C224.051 9.60826 224.06 9.68275 224.007 9.71068C223.849 9.81309 223.629 9.87361 223.313 9.85499C223.251 9.85499 223.119 9.91085 223.111 9.94344C223.111 9.98068 223.181 10.0365 223.26 10.0552L223.515 10.111C223.814 10.1622 223.805 10.2646 223.498 10.3438L223.225 10.3531H223.005C222.689 10.274 222.425 10.3205 222.425 10.4602L222.381 10.5533L222.31 10.6883C222.003 10.7302 221.616 10.7721 221.432 10.7767C221.248 10.7814 221.3 11.0746 221.414 11.2329C221.529 11.3912 221.74 11.9033 221.555 11.9452C221.37 11.9871 221.537 12.2571 221.642 12.3036C221.748 12.3502 221.933 12.5131 221.783 12.5596L221.599 12.5922C221.44 12.6202 221.256 12.4665 221.089 12.6062L221.072 12.6248C220.922 12.6108 220.641 12.5643 220.447 12.5271C220.254 12.4898 219.516 12.5596 219.199 12.5922C218.883 12.6248 217.846 12.4758 217.591 12.42C217.336 12.3641 216.404 12.3967 216.202 12.3781C216 12.3595 215.508 12.2245 215.447 12.2803C215.385 12.3362 215.262 12.5317 215.279 12.6062C215.297 12.6807 215.912 12.7272 216.053 12.7272L216.115 12.7552C216.246 12.8157 216.141 12.9646 216.528 12.9414H216.589C216.694 13.0484 216.932 13.0577 217.116 12.9646L217.16 13.1741V13.216C217.397 13.2533 217.793 13.2812 218.048 13.2765L218.092 13.4069L218.127 13.514C218.189 13.635 218.127 13.7002 218.004 13.6583C217.881 13.6164 217.397 13.5884 217.318 13.621C217.24 13.6536 216.87 13.6908 216.668 13.6303C216.466 13.5698 216.009 13.3696 215.939 13.4162L215.956 13.4395C216.071 13.5791 216.334 13.7234 216.29 13.8491L216.237 13.9934C215.921 14.161 215.745 14.3286 215.851 14.3705C215.956 14.4124 216.378 14.4031 216.545 14.3333L216.659 14.2541L216.729 14.2029C216.748 14.1284 216.791 14.0772 216.835 14.0819L216.853 14.0912L217.09 14.2495C217.371 14.1657 217.679 14.1191 217.767 14.1377C217.854 14.1564 217.828 14.296 217.503 14.3984L217.714 14.5614L217.802 14.6312C218.03 14.5986 218.33 14.6964 218.461 14.8453C218.593 14.9943 218.76 15.1619 218.698 15.1898C218.637 15.2177 218.321 15.2271 218.136 15.1526L217.96 15.0874L217.934 15.0781C217.837 15.0781 217.714 15.1246 217.653 15.1712C217.591 15.2177 217.521 15.376 217.688 15.3807C217.854 15.3853 218.321 15.4505 218.18 15.4971C218.039 15.5436 217.679 15.7205 217.74 15.7764C217.802 15.8322 218.039 15.9765 218.11 15.9346L218.18 15.9253C218.408 15.8974 218.742 16.0138 218.998 16.2372L219.103 16.3303C218.962 16.4374 218.804 16.5398 218.76 16.5631C218.716 16.5864 218.698 16.6795 218.839 16.7167H218.962C219.287 16.7167 219.393 16.7679 219.252 16.8983C219.217 16.9355 219.12 16.9914 219.146 17.0053L219.296 17.0752C219.252 17.1543 219.059 17.2055 218.874 17.1869L218.787 17.0798L218.751 17.0379C218.285 17.0193 218.303 17.0798 218.787 17.1729L218.593 17.3638L218.496 17.4662C218.417 17.5826 218.426 17.7129 218.514 17.7502C218.602 17.7874 218.778 17.9876 218.654 18.0621C218.531 18.1365 217.943 18.239 217.934 18.3088L217.995 18.3553L218.11 18.4484C218.206 18.5648 218.197 18.6253 218.11 18.5834C218.021 18.5415 217.617 18.4996 217.503 18.5183C217.389 18.5369 216.976 18.5369 216.835 18.5183C216.694 18.4996 216.29 18.5415 216.361 18.5695C216.431 18.5974 216.694 18.7091 216.809 18.751C216.923 18.7929 217.301 18.6905 217.336 18.6905C217.371 18.6905 217.459 18.7371 217.433 18.8208C217.406 18.9046 218.013 18.8208 218.127 18.8069C218.241 18.7929 218.426 18.8674 218.224 18.9093C218.021 18.9512 217.477 19.035 217.433 18.9931C217.389 18.9512 217.169 18.8907 217.099 18.8953C217.029 18.9 216.765 19.1374 216.659 19.1327C216.554 19.1281 216.193 19.2212 216.106 19.3515L216.211 19.4819C216.308 19.6029 216.448 19.6821 216.765 19.696H216.826C216.905 19.7333 216.879 19.8264 216.774 19.9008C216.668 19.9753 216.158 20.1243 216.106 20.1615C216.053 20.1988 216.061 20.3245 215.982 20.3338C215.904 20.3431 215.842 20.4222 215.824 20.4315C215.807 20.4408 215.851 20.506 215.974 20.5572C216.097 20.6084 216.361 20.8412 216.343 20.9808L216.211 21.0553C215.842 21.2602 215.93 21.3719 216.457 21.4976L216.861 21.5953C216.598 21.735 216.299 21.9212 216.193 22.0096C216.088 22.0981 215.771 22.2052 216.061 22.2145L216.026 22.4053L216.009 22.4845C216.035 22.6008 216.08 22.7731 216.106 22.8708L216.264 22.936L216.448 23.0152C216.387 23.1083 216.272 23.2758 216.185 23.3876L216.369 23.4993L216.826 23.7786C216.439 23.895 216.115 23.9974 216.097 24.0021C216.08 24.0067 216.361 24.2767 216.826 24.5514L217.169 24.826L217.266 24.9052C217.072 24.8819 216.896 24.8586 216.87 24.854C216.844 24.8493 216.668 24.8772 216.563 24.9145C216.457 24.9517 216.061 25.0402 215.965 25.0448C215.869 25.0495 215.438 25.0867 215.236 25.1333L215.033 25.1752L214.796 25.2264C214.524 25.2077 213.838 25.2543 213.275 25.3288C212.713 25.4033 210.903 25.4638 210.586 25.5057L210.296 25.5243L209.998 25.5429C209.689 25.5802 208.899 25.6174 208.257 25.6267H207.361C207.061 25.6826 206.64 25.8222 206.42 25.9293L206.139 25.7477C206.103 25.7245 205.611 25.8036 205.611 25.799C205.462 25.6081 205.172 25.9386 204.97 25.7617L204.9 25.7012C204.583 25.799 204.205 25.8595 204.064 25.8362L204.038 25.8502L203.748 25.9619C203.379 25.9433 202.948 25.9619 202.799 25.9991C202.65 26.0364 202.043 25.9572 201.894 25.9712C201.744 25.9852 201.024 26.0364 200.646 26.0364C200.268 26.0364 199.24 26.1714 199.142 26.1248C199.046 26.0783 198.413 26.2086 198.123 26.2598L197.895 26.2319L197.508 26.1853C197.112 26.2179 196.594 26.2505 196.357 26.2645C196.119 26.2784 195.583 26.3529 195.539 26.3203C195.495 26.2877 195.082 26.339 194.862 26.4227C194.643 26.5065 193.746 26.3855 193.544 26.4274L193.474 26.4041L193.158 26.2971C192.893 26.3808 192.384 26.4321 192.024 26.4134L191.733 26.4507L191.443 26.4926C191.171 26.4507 190.67 26.4227 190.336 26.4274L190.029 26.446L189.738 26.4646C189.431 26.5112 188.974 26.4926 188.719 26.4227L188.376 26.5065L188.13 26.5671C187.77 26.5577 187.076 26.5857 186.592 26.6276L186.108 26.5671L185.783 26.5252C185.353 26.5857 184.887 26.6415 184.746 26.6508C184.606 26.6602 184.158 26.595 184.025 26.6229C183.893 26.6508 183.445 26.6415 183.138 26.6369C182.83 26.6322 182.057 26.7114 182.03 26.6788C182.004 26.6462 181.916 26.6415 181.908 26.7393C181.899 26.8371 181.283 26.6602 181.16 26.6555C181.037 26.6508 180.483 26.6648 180.22 26.6834C179.956 26.7021 179.253 26.6508 179.068 26.6695C178.884 26.6881 178.198 26.6369 177.952 26.6183C177.706 26.5996 176.836 26.6276 176.572 26.5996C176.309 26.5717 175.615 26.7486 175.5 26.7579C175.386 26.7672 175.017 26.7114 174.876 26.7207C174.736 26.73 174.322 26.7114 174.006 26.7021C173.689 26.6927 172.793 26.6508 172.688 26.6508C172.582 26.6508 172.301 26.7021 172.213 26.6415C172.125 26.581 171.378 26.6508 171.141 26.6648C170.904 26.6788 170.025 26.7114 169.69 26.7998L169.278 26.6648L168.978 26.5671C168.486 26.5624 167.731 26.5996 167.3 26.6555L166.869 26.5717L166.808 26.5577C166.615 26.6602 166.271 26.6788 166.052 26.6043C165.832 26.5298 164.698 26.6695 164.206 26.6974C163.714 26.7253 162.387 26.5624 162.317 26.5577C162.246 26.5531 161.763 26.595 161.306 26.6276L160.875 26.5577L160.62 26.5158C160.471 26.6555 160.198 26.7253 159.996 26.6741C159.794 26.6229 159.267 26.5438 159.143 26.5996C159.021 26.6555 158.546 26.7765 158.44 26.7207C158.335 26.6648 157.817 26.581 157.395 26.6043L157.104 26.6648C156.779 26.7346 156.481 26.7207 156.235 26.6508L155.953 26.5764C155.733 26.6415 155.443 26.6741 155.32 26.6508C155.197 26.6276 154.732 26.5717 154.6 26.5624C154.468 26.5531 154.029 26.6043 153.879 26.6555C153.729 26.7067 153.22 26.6555 153.088 26.6741C152.956 26.6927 152.402 26.6695 152.236 26.6648C152.068 26.6602 151.611 26.6183 151.594 26.5671C151.576 26.5158 151.488 26.3669 151.418 26.3902C151.348 26.4134 151.172 26.4134 151.137 26.3669C151.102 26.3203 150.82 26.2877 150.68 26.3157L150.6 26.3995C150.539 26.4693 150.24 26.4972 150.056 26.5484C149.546 26.7067 149.529 26.7067 148.992 26.5205L148.904 26.4926C148.781 26.46 148.597 26.474 148.482 26.5158C148.369 26.5577 147.893 26.6415 147.736 26.581C147.577 26.5205 147.111 26.3902 147.094 26.4414C147.076 26.4926 146.822 26.6508 146.584 26.6648C146.347 26.6788 145.143 26.6229 144.352 26.7021L143.587 26.5717L143.35 26.5298C142.945 26.6415 142.55 26.6881 142.479 26.6322C142.409 26.5764 142.04 26.6834 141.996 26.7021C141.952 26.7207 141.592 26.7253 141.232 26.7253C140.871 26.7253 139.834 26.6369 139.693 26.6183C139.553 26.5996 139.043 26.6974 138.876 26.744C138.709 26.7905 137.874 26.7765 137.531 26.8976L137.127 26.73L136.89 26.6322C136.608 26.6741 136.231 26.6695 136.064 26.6276C135.896 26.5857 135.396 26.7672 135.22 26.7812C135.044 26.7952 134.499 26.7114 134.482 26.6602C134.464 26.609 134.209 26.5112 133.981 26.6043L133.814 26.6881L133.62 26.7812C133.4 26.7393 133.137 26.7253 133.031 26.7533C132.926 26.7812 132.6 26.8184 132.583 26.7626C132.565 26.7067 132.469 26.6881 132.408 26.8371L132.012 26.7579L131.81 26.716C131.634 26.7393 131.396 26.7672 131.265 26.7812C131.133 26.7952 130.676 26.7021 130.526 26.716C130.377 26.73 129.85 26.716 129.682 26.6648C129.516 26.6136 128.935 26.6415 128.681 26.609L128.452 26.5857C128.356 26.5764 128.145 26.6462 128.127 26.6369C127.934 26.5252 127.837 26.6229 127.688 26.6555C127.617 26.6695 127.451 26.5903 127.318 26.5671C127.292 26.5671 127.178 26.6136 127.169 26.6415V26.6648C127.257 26.6927 127.301 26.7253 127.266 26.744C127.231 26.7626 127.064 26.7486 126.949 26.73C126.835 26.7114 126.352 26.7253 126.132 26.7672H125.93C125.613 26.7672 125.182 26.6648 125.016 26.7207L124.69 26.8324C124.427 26.7672 124.102 26.7207 123.961 26.7253C123.82 26.73 123.363 26.8138 123.24 26.8603C123.117 26.9069 123.003 26.7067 122.986 26.6974C122.968 26.6881 122.678 26.6974 122.344 26.7114C122.01 26.7253 120.947 26.7812 120.709 26.7952C120.472 26.8091 119.795 26.5158 119.707 26.5577C119.619 26.5996 119.408 26.8045 119.039 26.8277C118.67 26.851 117.264 26.6322 116.666 26.5531L116.147 26.7719L116.007 26.8324C115.646 26.7998 115.277 26.7486 115.181 26.7253C115.084 26.7021 114.697 26.744 114.539 26.7021C114.381 26.6602 113.853 26.7672 113.775 26.7719C113.695 26.7765 113.229 26.7626 112.931 26.744C112.632 26.7253 111.428 26.7765 110.892 26.8277L110.443 26.6741C110.443 26.6741 109.345 26.7905 109.336 26.7998C109.283 26.8231 109.231 26.865 109.169 26.8696L108.896 26.8976C108.642 26.8371 108.457 26.7393 108.475 26.6881C108.492 26.6369 108.422 26.4833 108.316 26.4833C108.211 26.4833 107.991 26.5252 108.07 26.5717V26.6229L108.097 26.6927C108.097 26.7952 107.859 26.8557 107.587 26.8231H107.156C106.954 26.8464 106.559 26.879 106.277 26.8883C105.996 26.8976 105.161 26.8184 104.994 26.851C104.827 26.8836 104.274 26.8091 104.115 26.851C103.957 26.8929 103.43 26.8231 103.342 26.8417H103.254C102.841 26.8743 102.463 26.8696 102.033 26.8045L101.654 26.7486C101.127 26.7533 100.556 26.7579 100.389 26.7533C100.222 26.7486 100.055 26.5717 99.8527 26.6927L99.7468 26.7579L99.6855 26.7952C99.6242 26.8371 99.3432 26.8976 99.0613 26.9302C98.7802 26.9627 97.9275 26.8045 97.7787 26.7905C97.629 26.7765 97.348 26.7905 97.2508 26.7672C97.1545 26.744 96.7587 26.7672 96.6362 26.7765C96.5127 26.7858 95.9769 26.7998 95.7038 26.7858C95.4315 26.7719 94.7372 26.6834 94.7285 26.6602C94.7197 26.6369 94.5613 26.6881 94.4124 26.8231L93.9554 26.7021C93.832 26.6695 93.4897 26.8277 93.2253 26.8417L92.9968 26.8557C92.7333 26.8045 92.3025 26.8557 92.0565 26.9767L91.6792 26.8324L91.4594 26.7533C91.1075 26.6834 90.7555 26.6648 90.6943 26.716C90.633 26.7672 90.316 26.8836 90.2285 26.8231C90.1409 26.7626 89.7802 26.7067 89.6043 26.7952L89.4379 26.8371C89.3408 26.8603 89.0597 26.8324 89.0597 26.8184L89.0159 26.5903C88.5589 26.5252 88.1632 26.5298 88.1282 26.6043C88.0932 26.6788 87.8375 26.8091 87.6003 26.7858L87.4072 26.8091C87.2579 26.8277 87.1524 26.8929 87.1348 26.7765C87.1172 26.6508 86.9063 26.6229 86.7568 26.6788C86.335 26.8371 85.8516 26.73 85.4033 26.7626L85.0958 26.7858C84.7529 26.8091 84.4278 26.8324 84.3662 26.8324H84.3135L83.9443 26.7998C83.4346 26.7579 83.1622 26.6974 83.3291 26.6695C83.4962 26.6415 83.1533 26.4926 83.127 26.4414C83.1006 26.3902 82.8985 26.3436 82.8809 26.446C82.8633 26.5484 82.6963 26.8045 82.5294 26.7672L82.415 26.7207L82.2833 26.6695C82.1514 26.5624 81.8614 26.5298 81.624 26.595C81.3868 26.6602 80.7451 26.7067 80.6661 26.6276C80.5869 26.5484 80.2002 26.4088 80.0157 26.5112V26.8417C79.708 26.851 79.2158 26.8277 78.9258 26.7952C78.6357 26.7626 77.7744 26.8184 77.7129 26.8045C77.6514 26.7905 77.3614 26.7486 77.2032 26.7207C77.045 26.6927 76.3594 26.7207 76.0254 26.7719L75.8057 26.7346L75.5947 26.6974C75.4629 26.5531 75.1993 26.474 75.0146 26.5158C74.8301 26.5577 74.417 26.7021 74.4346 26.7393V26.8045C74.3818 26.8371 74.2939 26.8603 74.2325 26.851C74.1709 26.8417 73.9424 26.7533 73.8106 26.6834C73.6787 26.6136 73.1338 26.7579 73.0459 26.7626C72.958 26.7672 72.5977 26.7393 72.4131 26.716L72.3955 26.6788L72.334 26.5577C72.5713 26.5577 72.9317 26.5484 73.1338 26.5345C73.336 26.5205 73.4326 26.2738 73.2305 26.2552C73.0283 26.2365 72.4307 26.2552 72.4307 26.3343L72.3428 26.4088C72.2373 26.5019 72.0615 26.6415 71.8946 26.6462C71.4463 26.6602 71.7979 26.4553 71.6133 26.3808L71.5869 26.3715C71.5869 26.3715 71.3584 26.4367 71.1826 26.5484C71.0068 26.6602 70.0489 26.6555 69.75 26.6648C69.4512 26.6741 69.126 26.4088 69.0381 26.5065C68.9502 26.6043 69.5918 26.6788 69.627 26.6927C69.6622 26.7067 69.6885 26.7952 69.583 26.851H69.4775L69.3457 26.865C69.1875 26.8324 68.8536 26.716 68.5986 26.6043L68.5372 26.2086C68.5372 26.1574 68.2207 26.0596 68.2032 26.0643C67.4385 26.3343 67.6934 26.0084 67.6143 25.8827V25.8688C67.5264 25.8408 67.4473 25.8921 67.4297 25.9852C67.4122 26.0783 67.2275 26.2505 67.0606 26.176C66.8935 26.1015 66.6299 26.4367 66.5684 26.5019C66.5068 26.5671 66.2432 26.7672 66.1377 26.7765C66.0322 26.7858 65.4434 26.7672 64.9951 26.7765L64.5908 26.7858H64.5029C64.415 26.8091 64.336 26.7952 64.3271 26.7579C64.3184 26.7207 64.336 26.6369 64.3271 26.5671C64.3184 26.4972 64.6435 26.3529 64.8193 26.3669L64.96 26.3808L65.0918 26.3948C65.206 26.4414 65.4697 26.5065 65.6719 26.5345L65.874 26.5484C65.9707 26.5531 66.1377 26.5298 66.1728 26.5019L66.2783 26.3855C66.3662 26.2552 66.6036 26.1434 66.7881 26.1434L66.8496 26.1062C66.9903 26.0177 66.9814 25.8781 67.1485 25.8083L67.4649 25.6779C67.2803 25.5662 67.043 25.4684 66.9287 25.4591C66.8145 25.4498 66.4629 25.5243 66.4629 25.664C66.4629 25.8036 66.2344 26.1527 65.9707 26.1574L65.8125 26.2505C65.6192 26.3669 65.4346 26.3808 65.1446 26.2738L64.9951 26.2226L64.9336 26.2458ZM67.79 25.2031C67.5704 25.1658 67.3857 25.1472 67.3682 25.1612C67.3506 25.1752 67.4121 25.2543 67.5352 25.3055C67.6582 25.3567 68.3262 25.3846 68.6778 25.3102L69.0118 25.4498C69.0118 25.4498 69.1524 25.4312 69.1963 25.4079L69.3106 25.3474C69.46 25.2543 69.4072 25.1612 69.1875 25.1426C68.9678 25.124 68.0098 25.2403 67.79 25.2031ZM61.418 25.4033C61.1192 25.4545 60.9697 25.5569 61.084 25.636C61.1982 25.7152 61.7432 25.5522 61.875 25.515C62.0068 25.4777 62.6396 25.4498 62.8681 25.4498C63.0967 25.4498 63.7471 25.3893 63.6416 25.3102C63.5361 25.231 62.9209 25.3008 62.7715 25.3241C62.6221 25.3474 62.2002 25.3102 61.9102 25.2822L61.6553 25.3427L61.4092 25.4033H61.418ZM214.735 12.406C214.981 12.4479 215.086 12.406 214.972 12.3176C214.857 12.2291 214.462 11.8986 214.269 11.7264L213.908 11.9452L213.645 12.1081C213.354 12.0522 213.267 12.029 213.46 12.0569C213.654 12.0848 214.488 12.3641 214.735 12.406ZM112.65 25.4591C112.35 25.4591 112.061 25.4964 112.008 25.5336L112.025 25.5522L112.113 25.636C112.025 25.7198 112.052 25.8129 112.166 25.8455C112.28 25.8781 112.702 25.7664 112.922 25.7384C113.142 25.7105 112.966 25.4545 112.658 25.4545L112.65 25.4591ZM218.478 12.2757C218.321 12.1453 218.232 12.1453 218.294 12.2757C218.356 12.406 219.068 12.5457 219.279 12.5596L219.296 12.4293V12.3688C219.481 12.2477 219.279 12.2384 218.848 12.3502L218.698 12.3222L218.478 12.2803V12.2757ZM59.4493 25.2729C58.9571 25.3381 58.7021 25.3893 58.8868 25.3893C59.0713 25.3893 59.6338 25.5522 59.7832 25.5941C59.9326 25.636 60.3721 25.7012 60.3721 25.6267C60.3721 25.5522 60.17 25.4033 59.915 25.4638L59.8623 25.4405L59.4493 25.2729ZM81.044 25.7524C80.9385 25.7431 80.9912 25.8827 81.167 26.0643L81.4044 26.1248L81.6943 26.1993C81.9756 26.2971 82.3272 26.3483 82.4766 26.3203L82.5205 26.2784L82.5732 26.2226C82.5469 26.1341 82.2744 26.0829 81.958 26.1015L81.7822 26.0596L81.5889 26.0131C81.4483 25.9014 81.1583 25.7664 81.0528 25.7571L81.044 25.7524ZM152.341 25.7291C152.49 25.6965 152.525 25.6267 152.412 25.5755C152.297 25.5243 151.981 25.3846 151.919 25.3427C151.857 25.3008 151.506 25.3474 151.576 25.4591C151.646 25.5708 152.192 25.7617 152.341 25.7291ZM73.9688 25.9852C73.9248 25.8548 73.8985 25.8408 73.9161 25.9526C73.9336 26.0643 73.8545 26.3762 74.0391 26.3669C74.2236 26.3576 74.0127 26.1155 73.9688 25.9852ZM6.62693 17.401C6.8115 17.4243 6.91697 17.3684 6.85545 17.2753H6.8115C6.46873 17.2614 6.38084 17.1822 6.41599 17.0472L6.43357 16.9821C6.38084 16.889 6.22263 16.9169 6.0908 17.0333C5.95896 17.1496 6.44236 17.3777 6.62693 17.3964V17.401ZM3.58591 19.6402C3.58591 19.589 3.45408 19.5331 3.30466 19.5145L3.18161 19.4865C3.06736 19.4633 3.02341 19.3702 2.83884 19.454C2.69822 19.5191 2.58396 19.561 2.81247 19.6402C2.99704 19.7053 2.64548 19.9148 3.10251 19.9008C3.26951 19.8962 3.41013 19.7472 3.55076 19.6634L3.58591 19.6402Z" fill="#FFE600" fill-opacity="0.6"/>
<path d="M224.684 12.5829C224.789 12.6341 224.455 12.541 223.936 12.3735L223.313 12.4293C223.216 12.4386 223.031 12.3688 222.961 12.3176L222.811 12.2105C222.671 12.0662 222.794 11.9824 223.084 12.0243H223.304L223.84 12.015C223.585 11.9266 223.646 11.8614 223.972 11.8707L224.201 12.0197L224.367 12.1314C224.771 12.2152 225.017 12.2943 224.912 12.3083C224.807 12.3222 224.56 12.5317 224.675 12.5829H224.684Z" fill="#FFE600" fill-opacity="0.6"/>
</g>
</g>
<defs>
<clipPath id="clip0_90_105">
<rect width="225" height="27" fill="white"/>
</clipPath>
</defs>
</svg>
